<svg width="512" height="512" viewBox="0 0 512 512" fill="none" xmlns="http://www.w3.org/2000/svg">
<g clip-path="url(#clip0_4:63)">
<path d="M133.15 503.34V202.88C133.15 146.29 178.15 100.41 233.75 100.41H278.24C333.8 100.41 378.84 146.29 378.84 202.88V503.34" fill="#EFCEC9"/>
<path d="M378.85 512C376.553 512 374.351 511.088 372.726 509.464C371.102 507.839 370.19 505.637 370.19 503.34V202.88C370.19 151.15 328.95 109.07 278.25 109.07H233.75C183.05 109.07 141.81 151.15 141.81 202.88V503.34C141.81 505.637 140.898 507.839 139.274 509.464C137.649 511.088 135.447 512 133.15 512C130.853 512 128.651 511.088 127.026 509.464C125.402 507.839 124.49 505.637 124.49 503.34V202.88C124.49 141.61 173.49 91.75 233.75 91.75H278.24C338.48 91.75 387.5 141.6 387.5 202.88V503.34C387.5 505.635 386.589 507.836 384.967 509.46C383.345 511.084 381.145 511.997 378.85 512Z" fill="#454550"/>
<path d="M249.12 8.65997C228.788 8.65997 209.29 16.7366 194.913 31.1132C180.537 45.4897 172.46 64.9885 172.46 85.32V239C172.461 254.085 177.587 268.722 187 280.51C193.548 288.739 201.875 295.378 211.355 299.929C220.836 304.481 231.224 306.826 241.74 306.79H270.31C280.818 306.819 291.196 304.47 300.667 299.918C310.138 295.367 318.457 288.732 325 280.51C334.412 268.721 339.539 254.085 339.54 239V85.31C339.537 64.9802 331.459 45.484 317.083 31.1096C302.707 16.7353 283.21 8.65997 262.88 8.65997H249.12Z" fill="white"/>
<path d="M270.29 315.45H241.71C229.886 315.508 218.203 312.877 207.545 307.756C196.887 302.635 187.533 295.158 180.19 285.89C169.546 272.584 163.767 256.04 163.81 239V85.31C163.837 62.6925 172.833 41.0089 188.826 25.016C204.819 9.02296 226.503 0.0264656 249.12 0L262.88 0C285.498 0.0264656 307.181 9.02296 323.174 25.016C339.167 41.0089 348.164 62.6925 348.19 85.31V239C348.224 256.031 342.441 272.563 331.8 285.86C324.461 295.132 315.11 302.614 304.454 307.74C293.797 312.867 282.115 315.503 270.29 315.45V315.45ZM249.12 17.32C231.091 17.3385 213.806 24.5087 201.057 37.2572C188.309 50.0057 181.139 67.291 181.12 85.32V239C181.097 252.125 185.556 264.865 193.76 275.11C199.491 282.334 206.792 288.16 215.108 292.145C223.424 296.13 232.539 298.169 241.76 298.11H270.33C279.552 298.169 288.666 296.13 296.982 292.145C305.298 288.16 312.599 282.334 318.33 275.11C326.501 264.853 330.929 252.114 330.88 239V85.31C330.862 67.281 323.691 49.9957 310.943 37.2472C298.194 24.4987 280.909 17.3285 262.88 17.31L249.12 17.32Z" fill="#454550"/>
<path d="M270.29 71.27H241.71C203.46 71.27 172.46 101.61 172.46 139.04V239.67C172.467 254.745 177.594 269.37 187 281.15C201.69 259.76 227.11 245.61 256 245.61C284.89 245.61 310.33 259.76 325 281.15C334.397 269.363 339.513 254.734 339.51 239.66V139C339.54 101.61 308.53 71.27 270.29 71.27V71.27Z" fill="#CE7F86"/>
<path d="M325 289.81H324.7C323.346 289.764 322.022 289.4 320.834 288.749C319.646 288.097 318.627 287.177 317.86 286.06C304.19 266.16 281.05 254.27 255.97 254.27C230.89 254.27 207.76 266.15 194.08 286.06C193.313 287.176 192.294 288.097 191.107 288.749C189.919 289.4 188.595 289.764 187.241 289.81C185.887 289.857 184.541 289.586 183.311 289.018C182.082 288.45 181.002 287.601 180.16 286.54C169.522 273.242 163.743 256.71 163.78 239.68V139C163.78 96.86 198.73 62.58 241.69 62.58H270.26C313.26 62.58 348.17 96.86 348.17 139V239.67C348.207 256.7 342.428 273.232 331.79 286.53C330.979 287.553 329.947 288.38 328.771 288.948C327.595 289.516 326.306 289.811 325 289.81V289.81ZM256 237C268.808 236.923 281.492 239.502 293.253 244.574C305.014 249.647 315.596 257.102 324.33 266.47C328.654 258.214 330.903 249.03 330.88 239.71V139C330.88 106.41 303.7 79.89 270.29 79.89H241.71C208.3 79.89 181.12 106.41 181.12 139V239.67C181.097 248.99 183.345 258.174 187.67 266.43C196.408 257.069 206.991 249.621 218.752 244.556C230.512 239.491 243.195 236.918 256 237V237Z" fill="#454550"/>
<path d="M215.45 202.92C213.153 202.92 210.951 202.008 209.327 200.384C207.702 198.76 206.79 196.557 206.79 194.26V131.19C206.79 128.893 207.702 126.691 209.327 125.066C210.951 123.442 213.153 122.53 215.45 122.53C217.747 122.53 219.95 123.442 221.574 125.066C223.198 126.691 224.11 128.893 224.11 131.19V194.27C224.107 196.565 223.194 198.765 221.57 200.387C219.946 202.009 217.745 202.92 215.45 202.92Z" fill="white"/>
</g>
<defs>
<clipPath id="clip0_4:63">
<rect width="512" height="512" fill="white"/>
</clipPath>
</defs>
</svg>
