<svg width="512" height="512" viewBox="0 0 512 512" fill="none" xmlns="http://www.w3.org/2000/svg">
<g clip-path="url(#clip0_4:227)">
<path d="M201.43 66.54L174.24 56.54L186.39 18.38C189.19 10.95 196.56 6.99001 204.13 9.38001C207.755 10.5382 210.795 13.0453 212.623 16.3826C214.451 19.72 214.926 23.6322 213.95 27.31L201.43 66.54Z" fill="#CE7F86"/>
<path d="M201.43 75.2C200.406 75.1986 199.39 75.0158 198.43 74.66L171.24 64.66C169.145 63.8857 167.43 62.3318 166.454 60.323C165.477 58.3142 165.315 56.0058 166 53.88L178.15 15.72C178.15 15.58 178.25 15.43 178.3 15.29C182.74 3.50001 194.96 -2.61999 206.73 1.06001C212.454 2.89382 217.261 6.84493 220.168 12.1053C223.075 17.3658 223.863 23.538 222.37 29.36C222.323 29.54 222.273 29.7167 222.22 29.89L209.68 69.17C209.117 70.9146 208.015 72.4354 206.532 73.5137C205.05 74.5919 203.263 75.1718 201.43 75.17V75.2ZM185 51.25L195.94 55.25L205.61 24.91C205.988 23.3986 205.78 21.7999 205.026 20.4361C204.273 19.0722 203.031 18.0446 201.55 17.56C197.92 16.42 195.55 18.77 194.55 21.2L185 51.25Z" fill="#454550"/>
<path d="M190.1 127.53C190.22 127.53 206.66 75.25 206.66 75.25C208.087 70.6737 207.638 65.718 205.412 61.4725C203.186 57.2269 199.366 54.0392 194.79 52.61L187.79 50.42C183.214 48.993 178.258 49.4418 174.012 51.6677C169.767 53.8936 166.579 57.7144 165.15 62.29L148.83 114.59L127.92 136.73C119.633 145.486 113.596 156.125 110.33 167.73L33.61 441.05C32.399 445.322 32.9074 449.898 35.0265 453.8C37.1457 457.702 40.7074 460.62 44.95 461.93L77.68 472.14C81.9151 473.474 86.5041 473.099 90.4659 471.094C94.4276 469.089 97.4476 465.613 98.88 461.41L191.19 193C195.116 181.586 196.207 169.389 194.37 157.46C194.37 157.46 189.93 127.48 190.1 127.53V127.53Z" fill="#EFCEC9"/>
<path d="M82.85 481.6C80.218 481.598 77.6016 481.197 75.09 480.41L42.37 470.2C35.9673 468.235 30.5908 463.837 27.3954 457.951C24.1999 452.065 23.4404 445.16 25.28 438.72L102 165.43C105.653 152.464 112.392 140.575 121.64 130.78L141.17 110.11L156.9 59.71C157.945 56.3585 159.64 53.2457 161.888 50.5493C164.136 47.8529 166.894 45.6258 170.003 43.9951C173.112 42.3645 176.512 41.3623 180.008 41.0457C183.504 40.7291 187.029 41.1044 190.38 42.15L197.38 44.34C204.144 46.4574 209.792 51.1717 213.084 57.4485C216.376 63.7252 217.044 71.0517 214.94 77.82C214.94 77.82 210.82 90.9 206.7 104C204.64 110.54 202.57 117.08 201.01 122C200.22 124.47 199.57 126.53 199.1 128L198.93 128.54C199.53 132.97 201.31 145.24 202.93 156.28C204.957 169.581 203.735 183.174 199.37 195.9L107.05 464.3C105.325 469.348 102.064 473.729 97.7247 476.831C93.3853 479.934 88.1843 481.601 82.85 481.6V481.6ZM182.37 58.25C180.361 58.2519 178.404 58.895 176.786 60.0856C175.167 61.2763 173.97 62.9524 173.37 64.87L157.05 117.17C156.44 119.1 156.44 119.1 151.81 124.01L134.17 142.68C126.849 150.434 121.513 159.846 118.62 170.11L41.95 443.39C41.3484 445.493 41.5959 447.748 42.6393 449.67C43.6828 451.593 45.4389 453.029 47.53 453.67L80.26 463.88C82.3437 464.54 84.6031 464.357 86.5532 463.37C88.5032 462.383 89.9885 460.67 90.69 458.6L183 190.19C186.461 180.101 187.425 169.323 185.81 158.78C185.81 158.73 184.7 151.26 183.61 143.78C183.07 140.03 182.52 136.27 182.13 133.45C181.48 128.77 181.08 125.94 182.31 123.55C184.16 117.91 192.69 90.84 198.4 72.64C199.138 70.257 198.901 67.6785 197.741 65.47C196.581 63.2616 194.591 61.6037 192.21 60.86L185.21 58.67C184.29 58.3862 183.333 58.2446 182.37 58.25V58.25ZM198.37 130.05C198.065 130.913 197.663 131.738 197.17 132.51C197.705 131.743 198.113 130.896 198.38 130L198.37 130.05ZM190.05 118.87C188.572 118.874 187.121 119.263 185.84 120C186.875 119.417 188.019 119.053 189.201 118.931C190.383 118.808 191.577 118.931 192.71 119.29C191.854 119.011 190.96 118.866 190.06 118.86L190.05 118.87Z" fill="#454550"/>
<path d="M40.528 460.754L82.08 473.72L72.7675 503.564L31.2155 490.598L40.528 460.754Z" fill="#CE7F86"/>
<path d="M72.72 512C71.8447 511.998 70.9748 511.863 70.14 511.6L28.61 498.6C26.4203 497.914 24.5923 496.388 23.5274 494.355C22.4624 492.323 22.2476 489.951 22.93 487.76L32.24 458C32.9258 455.81 34.4525 453.982 36.4849 452.917C38.5173 451.852 40.8893 451.638 43.08 452.32L84.61 465.32C86.7997 466.006 88.6277 467.532 89.6927 469.565C90.7577 471.597 90.9725 473.969 90.29 476.16L81 505.92C80.4494 507.684 79.3487 509.226 77.8589 510.32C76.3691 511.414 74.5683 512.003 72.72 512ZM42 484.69L67 492.5L71.15 479.2L46.15 471.39L42 484.69Z" fill="#454550"/>
<path d="M148.37 188.01L148.18 188.59Z" fill="#EFCEC9"/>
<path d="M148.19 197.25C146.831 197.249 145.492 196.928 144.28 196.314C143.067 195.7 142.017 194.81 141.212 193.715C140.407 192.62 139.871 191.352 139.646 190.012C139.422 188.671 139.516 187.297 139.92 186L140.1 185.42C140.829 183.285 142.363 181.518 144.375 180.497C146.386 179.475 148.717 179.279 150.871 179.95C153.026 180.621 154.833 182.107 155.908 184.09C156.984 186.074 157.243 188.398 156.63 190.57L156.45 191.15C155.904 192.915 154.808 194.459 153.322 195.556C151.836 196.654 150.038 197.247 148.19 197.25V197.25Z" fill="#454550"/>
<path d="M120.36 286.44C119.002 286.441 117.662 286.121 116.45 285.509C115.238 284.896 114.186 284.006 113.381 282.912C112.576 281.818 112.04 280.55 111.816 279.21C111.591 277.87 111.685 276.497 112.09 275.2L127.33 226.34C127.651 225.234 128.19 224.204 128.915 223.309C129.639 222.414 130.535 221.672 131.55 221.127C132.565 220.583 133.678 220.246 134.824 220.137C135.97 220.027 137.127 220.148 138.226 220.491C139.326 220.834 140.345 221.393 141.226 222.135C142.107 222.877 142.83 223.787 143.355 224.812C143.88 225.838 144.194 226.957 144.281 228.105C144.368 229.254 144.225 230.408 143.86 231.5L128.62 280.36C128.07 282.121 126.973 283.661 125.487 284.754C124.001 285.848 122.205 286.439 120.36 286.44Z" fill="white"/>
<path d="M292.23 171.9H278.8C271.239 171.9 265.11 178.029 265.11 185.59V230.44C265.11 238.001 271.239 244.13 278.8 244.13H292.23C299.791 244.13 305.92 238.001 305.92 230.44V185.59C305.92 178.029 299.791 171.9 292.23 171.9Z" fill="#CE7F86"/>
<path d="M292.24 252.78H278.81C272.884 252.775 267.202 250.418 263.012 246.228C258.822 242.038 256.465 236.356 256.46 230.43V185.59C256.465 179.664 258.822 173.982 263.012 169.792C267.202 165.602 272.884 163.245 278.81 163.24H292.24C298.166 163.245 303.848 165.602 308.038 169.792C312.228 173.982 314.585 179.664 314.59 185.59V230.44C314.582 236.364 312.224 242.043 308.034 246.232C303.844 250.42 298.164 252.775 292.24 252.78V252.78ZM278.81 180.55C277.484 180.55 276.212 181.077 275.274 182.014C274.337 182.952 273.81 184.224 273.81 185.55V230.4C273.81 231.726 274.337 232.998 275.274 233.936C276.212 234.873 277.484 235.4 278.81 235.4H292.24C293.566 235.4 294.838 234.873 295.776 233.936C296.713 232.998 297.24 231.726 297.24 230.4V185.59C297.24 184.264 296.713 182.992 295.776 182.054C294.838 181.117 293.566 180.59 292.24 180.59L278.81 180.55Z" fill="#454550"/>
<path d="M285.52 278.51C284.383 278.51 283.257 278.286 282.206 277.851C281.155 277.416 280.2 276.778 279.396 275.974C278.592 275.169 277.954 274.215 277.519 273.164C277.084 272.113 276.86 270.987 276.86 269.85V244.13C276.86 242.993 277.084 241.867 277.519 240.816C277.954 239.765 278.592 238.811 279.396 238.006C280.2 237.202 281.155 236.564 282.206 236.129C283.257 235.694 284.383 235.47 285.52 235.47C286.657 235.47 287.783 235.694 288.834 236.129C289.885 236.564 290.839 237.202 291.643 238.006C292.448 238.811 293.085 239.765 293.521 240.816C293.956 241.867 294.18 242.993 294.18 244.13V269.85C294.18 270.987 293.956 272.113 293.521 273.164C293.085 274.215 292.448 275.169 291.643 275.974C290.839 276.778 289.885 277.416 288.834 277.851C287.783 278.286 286.657 278.51 285.52 278.51V278.51Z" fill="#454550"/>
<path d="M286.78 333.67H284.25C273.679 333.67 265.11 342.239 265.11 352.81V386.76C265.11 397.331 273.679 405.9 284.25 405.9H286.78C297.351 405.9 305.92 397.331 305.92 386.76V352.81C305.92 342.239 297.351 333.67 286.78 333.67Z" fill="white"/>
<path d="M286.79 414.55H284.25C276.879 414.542 269.813 411.611 264.601 406.399C259.389 401.187 256.458 394.121 256.45 386.75V352.81C256.458 345.439 259.389 338.373 264.601 333.161C269.813 327.949 276.879 325.018 284.25 325.01H286.79C294.161 325.018 301.227 327.949 306.439 333.161C311.651 338.373 314.582 345.439 314.59 352.81V386.76C314.579 394.129 311.647 401.193 306.435 406.402C301.224 411.612 294.159 414.542 286.79 414.55V414.55ZM284.25 342.32C281.471 342.323 278.807 343.428 276.842 345.392C274.878 347.357 273.773 350.021 273.77 352.8V386.75C273.773 389.529 274.878 392.193 276.842 394.158C278.807 396.122 281.471 397.227 284.25 397.23H286.79C289.569 397.227 292.233 396.122 294.197 394.158C296.162 392.193 297.267 389.529 297.27 386.75V352.81C297.267 350.031 296.162 347.367 294.197 345.402C292.233 343.438 289.569 342.333 286.79 342.33L284.25 342.32Z" fill="#454550"/>
<path d="M285.52 440.28C284.383 440.28 283.257 440.056 282.206 439.621C281.155 439.186 280.2 438.548 279.396 437.744C278.592 436.939 277.954 435.985 277.519 434.934C277.084 433.883 276.86 432.757 276.86 431.62V405.9C276.86 403.603 277.772 401.401 279.396 399.776C281.02 398.152 283.223 397.24 285.52 397.24C287.817 397.24 290.019 398.152 291.643 399.776C293.267 401.401 294.18 403.603 294.18 405.9V431.62C294.18 433.917 293.267 436.119 291.643 437.744C290.019 439.368 287.817 440.28 285.52 440.28V440.28Z" fill="#454550"/>
<path d="M461.14 316.35H443.33C436.979 316.35 431.83 321.499 431.83 327.85V394.39C431.83 400.741 436.979 405.89 443.33 405.89H461.14C467.491 405.89 472.64 400.741 472.64 394.39V327.85C472.64 321.499 467.491 316.35 461.14 316.35Z" fill="#EFCEC9"/>
<path d="M461.14 414.55H443.34C437.995 414.545 432.87 412.419 429.091 408.639C425.311 404.86 423.185 399.735 423.18 394.39V327.86C423.185 322.515 425.311 317.39 429.091 313.611C432.87 309.831 437.995 307.705 443.34 307.7H461.15C466.495 307.705 471.62 309.831 475.399 313.611C479.179 317.39 481.305 322.515 481.31 327.86V394.4C481.302 399.745 479.174 404.869 475.392 408.646C471.611 412.424 466.485 414.547 461.14 414.55V414.55ZM443.34 325C442.584 325 441.859 325.3 441.325 325.835C440.79 326.369 440.49 327.094 440.49 327.85V394.39C440.49 395.146 440.79 395.871 441.325 396.405C441.859 396.94 442.584 397.24 443.34 397.24H461.15C461.906 397.24 462.631 396.94 463.165 396.405C463.7 395.871 464 395.146 464 394.39V327.86C464 327.104 463.7 326.379 463.165 325.845C462.631 325.31 461.906 325.01 461.15 325.01L443.34 325Z" fill="#454550"/>
<path d="M452.24 440.28C451.103 440.28 449.977 440.056 448.926 439.621C447.875 439.186 446.921 438.548 446.117 437.744C445.312 436.939 444.674 435.985 444.239 434.934C443.804 433.883 443.58 432.757 443.58 431.62V405.9C443.58 403.603 444.492 401.401 446.117 399.776C447.741 398.152 449.943 397.24 452.24 397.24C454.537 397.24 456.74 398.152 458.364 399.776C459.988 401.401 460.9 403.603 460.9 405.9V431.62C460.9 433.917 459.988 436.119 458.364 437.744C456.74 439.368 454.537 440.28 452.24 440.28V440.28Z" fill="#454550"/>
<path d="M380.73 405.9H353.57C351.759 405.9 350.021 405.18 348.74 403.9C347.46 402.619 346.74 400.881 346.74 399.07V339.68C346.74 337.794 347.151 335.931 347.944 334.22C348.736 332.508 349.892 330.99 351.33 329.77L367.15 316.35L383 329.78C384.438 331 385.594 332.518 386.386 334.23C387.179 335.941 387.59 337.804 387.59 339.69V399.08C387.589 399.979 387.41 400.868 387.064 401.698C386.719 402.527 386.213 403.28 385.575 403.914C384.938 404.547 384.182 405.049 383.351 405.39C382.519 405.73 381.629 405.904 380.73 405.9V405.9Z" fill="#EFCEC9"/>
<path d="M380.73 414.55H353.57C349.466 414.545 345.532 412.912 342.63 410.01C339.728 407.108 338.095 403.174 338.09 399.07V339.68C338.088 336.537 338.771 333.432 340.093 330.581C341.414 327.729 343.341 325.2 345.74 323.17L361.56 309.75C363.125 308.424 365.109 307.696 367.16 307.696C369.211 307.696 371.196 308.424 372.76 309.75L388.58 323.17C390.977 325.201 392.903 327.73 394.222 330.582C395.542 333.433 396.223 336.538 396.22 339.68V399.07C396.215 403.176 394.581 407.111 391.677 410.014C388.773 412.916 384.836 414.547 380.73 414.55V414.55ZM355.4 397.24H378.9V339.68C378.9 339.052 378.764 338.431 378.499 337.861C378.235 337.291 377.85 336.786 377.37 336.38L367.15 327.71L356.93 336.38C356.45 336.787 356.064 337.294 355.8 337.866C355.535 338.438 355.399 339.06 355.4 339.69V397.24Z" fill="#454550"/>
<path d="M367.15 440.28C366.013 440.28 364.887 440.056 363.836 439.621C362.785 439.186 361.831 438.548 361.026 437.744C360.222 436.939 359.584 435.985 359.149 434.934C358.714 433.883 358.49 432.757 358.49 431.62V405.9C358.49 403.603 359.402 401.401 361.026 399.776C362.651 398.152 364.853 397.24 367.15 397.24C369.447 397.24 371.649 398.152 373.274 399.776C374.898 401.401 375.81 403.603 375.81 405.9V431.62C375.81 432.757 375.586 433.883 375.151 434.934C374.716 435.985 374.078 436.939 373.274 437.744C372.469 438.548 371.515 439.186 370.464 439.621C369.413 440.056 368.287 440.28 367.15 440.28V440.28Z" fill="#454550"/>
<path d="M392.25 244.13H351.44L369.8 173.8C369.915 173.376 370.166 173.002 370.515 172.736C370.864 172.469 371.291 172.324 371.73 172.324C372.169 172.324 372.596 172.469 372.945 172.736C373.293 173.002 373.545 173.376 373.66 173.8L392.25 244.13Z" fill="#CE7F86"/>
<path d="M392.25 252.78H351.44C350.117 252.78 348.812 252.477 347.625 251.894C346.437 251.31 345.399 250.463 344.59 249.417C343.781 248.37 343.222 247.152 342.957 245.856C342.692 244.56 342.727 243.22 343.06 241.94L361.42 171.61V171.46C362.034 169.216 363.372 167.237 365.225 165.83C367.078 164.424 369.344 163.668 371.67 163.68C374.005 163.648 376.285 164.39 378.154 165.79C380.023 167.19 381.375 169.17 382 171.42V171.57L400.59 241.91C400.928 243.191 400.968 244.533 400.706 245.833C400.444 247.132 399.887 248.353 399.078 249.403C398.27 250.454 397.231 251.304 396.042 251.889C394.853 252.475 393.545 252.779 392.22 252.78H392.25ZM362.64 235.46H381L371.76 200.46L362.64 235.46Z" fill="#454550"/>
<path d="M371.85 278.51C370.713 278.51 369.587 278.286 368.536 277.851C367.485 277.416 366.531 276.778 365.727 275.974C364.922 275.169 364.285 274.215 363.849 273.164C363.414 272.113 363.19 270.987 363.19 269.85V244.13C363.19 241.833 364.103 239.63 365.727 238.006C367.351 236.382 369.553 235.47 371.85 235.47C374.147 235.47 376.35 236.382 377.974 238.006C379.598 239.63 380.51 241.833 380.51 244.13V269.85C380.51 270.987 380.286 272.113 379.851 273.164C379.416 274.215 378.778 275.169 377.974 275.974C377.17 276.778 376.215 277.416 375.164 277.851C374.114 278.286 372.987 278.51 371.85 278.51V278.51Z" fill="#454550"/>
<path d="M456.44 278.51C455.303 278.51 454.177 278.286 453.126 277.851C452.075 277.416 451.121 276.778 450.316 275.974C449.512 275.169 448.874 274.215 448.439 273.164C448.004 272.113 447.78 270.987 447.78 269.85V244.13C447.78 241.833 448.692 239.63 450.316 238.006C451.941 236.382 454.143 235.47 456.44 235.47C458.737 235.47 460.94 236.382 462.564 238.006C464.188 239.63 465.1 241.833 465.1 244.13V269.85C465.1 270.987 464.876 272.113 464.441 273.164C464.006 274.215 463.368 275.169 462.564 275.974C461.759 276.778 460.805 277.416 459.754 277.851C458.703 278.286 457.577 278.51 456.44 278.51V278.51Z" fill="#454550"/>
<path d="M456.32 243.63C469.846 243.63 480.81 232.665 480.81 219.14C480.81 205.615 469.846 194.65 456.32 194.65C442.795 194.65 431.83 205.615 431.83 219.14C431.83 232.665 442.795 243.63 456.32 243.63Z" fill="#911439"/>
<path d="M456.32 252.29C449.763 252.29 443.354 250.346 437.903 246.703C432.451 243.061 428.202 237.883 425.693 231.826C423.184 225.769 422.528 219.103 423.807 212.673C425.086 206.242 428.243 200.336 432.879 195.699C437.515 191.063 443.422 187.906 449.853 186.627C456.283 185.348 462.949 186.004 469.006 188.513C475.063 191.022 480.241 195.271 483.883 200.723C487.526 206.174 489.47 212.584 489.47 219.14C489.462 227.929 485.967 236.357 479.752 242.572C473.537 248.787 465.109 252.282 456.32 252.29V252.29ZM456.32 203.29C453.189 203.29 450.128 204.218 447.525 205.958C444.922 207.697 442.893 210.17 441.695 213.062C440.497 215.955 440.183 219.138 440.794 222.208C441.405 225.279 442.913 228.1 445.126 230.314C447.34 232.527 450.161 234.035 453.232 234.646C456.302 235.257 459.485 234.943 462.378 233.745C465.27 232.547 467.743 230.518 469.482 227.915C471.222 225.311 472.15 222.251 472.15 219.12C472.139 214.927 470.468 210.909 467.501 207.945C464.534 204.982 460.513 203.315 456.32 203.31V203.29Z" fill="#454550"/>
<path d="M162.07 79.49L200.06 91.78Z" fill="#CE7F86"/>
<path d="M200.06 100.44C199.153 100.441 198.252 100.299 197.39 100.02L159.39 87.73C157.274 86.9691 155.537 85.4151 154.547 83.3967C153.556 81.3784 153.389 79.0538 154.082 76.9147C154.774 74.7756 156.271 72.9895 158.256 71.9342C160.242 70.8789 162.56 70.6372 164.72 71.26L202.72 83.55C204.683 84.1846 206.354 85.4989 207.434 87.2563C208.514 89.0137 208.931 91.0989 208.61 93.1365C208.29 95.1741 207.252 97.0303 205.685 98.3711C204.117 99.7118 202.123 100.449 200.06 100.45V100.44Z" fill="#454550"/>
</g>
<defs>
<clipPath id="clip0_4:227">
<rect width="512" height="512" fill="white"/>
</clipPath>
</defs>
</svg>
