<svg width="512" height="512" viewBox="0 0 512 512" fill="none" xmlns="http://www.w3.org/2000/svg">
<g clip-path="url(#clip0_4:278)">
<path d="M256 146.11C130.58 146.11 63.8101 162.87 38.3101 171.23V368.57C38.3127 404.307 52.5104 438.58 77.7803 463.85C103.05 489.12 137.323 503.317 173.06 503.32H338.94C374.677 503.317 408.95 489.12 434.22 463.85C459.49 438.58 473.687 404.307 473.69 368.57V172C450.6 163.88 385.13 146.11 256 146.11V146.11Z" fill="white"/>
<path d="M338.94 512H173.06C93.9999 512 29.6299 447.66 29.6299 368.57V171.24C29.6311 169.408 30.2123 167.623 31.2901 166.141C32.3678 164.659 33.887 163.556 35.6299 162.99C64.7399 153.45 132.08 137.44 256.03 137.44C387.16 137.44 453.95 155.85 476.59 163.77C478.288 164.365 479.759 165.472 480.799 166.94C481.84 168.407 482.399 170.161 482.4 171.96V368.57C482.37 447.66 418 512 338.94 512V512ZM46.9999 177.62V368.62C47.0528 402.033 60.3524 434.062 83.9829 457.685C107.613 481.308 139.647 494.598 173.06 494.64H338.94C372.362 494.598 404.403 481.301 428.035 457.668C451.666 434.034 464.96 401.992 465 368.57V178.22C438.68 169.9 374.55 154.8 256 154.8C139.58 154.79 74.1499 169.52 46.9999 177.62Z" fill="#454550"/>
<path d="M473.69 172V143.43C473.687 107.693 459.49 73.4203 434.22 48.1503C408.95 22.8804 374.677 8.68271 338.94 8.68005H173.06C137.323 8.68271 103.05 22.8804 77.7803 48.1503C52.5104 73.4203 38.3127 107.693 38.3101 143.43V171.23C63.8101 162.87 130.58 146.11 256 146.11C385.13 146.11 450.6 163.88 473.69 172Z" fill="#EFCEC9"/>
<path d="M473.69 180.63C472.716 180.629 471.749 180.463 470.83 180.14C449 172.52 384.47 154.79 256 154.79C129.93 154.79 63.6601 172.06 41.0001 179.48C39.6967 179.907 38.3108 180.018 36.9559 179.806C35.6011 179.594 34.3158 179.063 33.2054 178.258C32.0951 177.453 31.1913 176.397 30.5681 175.175C29.9449 173.953 29.62 172.601 29.6201 171.23V143.43C29.6301 64.34 94.0001 0 173.06 0H338.94C418 0 482.37 64.34 482.37 143.43V172C482.37 174.302 481.456 176.51 479.828 178.138C478.2 179.765 475.992 180.68 473.69 180.68V180.63ZM256 137.44C369.54 137.44 434.84 151.24 465 160.08V143.43C464.96 110.008 451.667 77.9662 428.035 54.3324C404.403 30.6986 372.362 17.4023 338.94 17.36H173.06C139.638 17.4023 107.597 30.6986 83.9655 54.3324C60.3335 77.9662 47.0398 110.008 47.0001 143.43V159.53C80.6901 150 146.09 137.44 256 137.44V137.44Z" fill="#454550"/>
<path d="M95.3299 102.88C93.8106 102.875 92.3193 102.471 91.0049 101.709C89.6905 100.947 88.5992 99.8536 87.84 98.5377C87.0808 97.2217 86.6802 95.7295 86.6785 94.2102C86.6767 92.6909 87.0737 91.1978 87.8299 89.88C88.8799 88.06 114.13 45.39 156.33 45.39C158.632 45.39 160.84 46.3045 162.468 47.9323C164.095 49.5601 165.01 51.7679 165.01 54.07C165.01 56.3721 164.095 58.5799 162.468 60.2077C160.84 61.8355 158.632 62.75 156.33 62.75C124.2 62.75 103.04 98.25 102.83 98.61C102.06 99.9133 100.963 100.993 99.6474 101.742C98.3319 102.491 96.8436 102.883 95.3299 102.88V102.88Z" fill="white"/>
<path d="M256 212.49C230.77 212.49 210.74 233.25 212.21 257.87L218.43 361.69V503.32H293.56V361.69L299.78 257.87C301.26 233.25 281.23 212.49 256 212.49Z" fill="#EFCEC9"/>
<path d="M293.56 512H218.44C216.138 512 213.93 511.085 212.302 509.458C210.675 507.83 209.76 505.622 209.76 503.32V362L203.55 258.44C203.12 251.493 204.129 244.532 206.514 237.993C208.899 231.454 212.608 225.479 217.41 220.44C222.375 215.192 228.358 211.01 234.993 208.151C241.627 205.292 248.775 203.815 256 203.81C263.22 203.807 270.366 205.275 277 208.123C283.635 210.972 289.62 215.143 294.59 220.38C299.392 225.419 303.102 231.394 305.487 237.933C307.871 244.472 308.88 251.433 308.45 258.38L302.24 362V503.32C302.24 505.622 301.326 507.83 299.698 509.458C298.07 511.085 295.862 512 293.56 512V512ZM227.11 494.64H284.88V361.64C284.88 361.467 284.88 361.293 284.88 361.12L291.1 257.3C291.384 252.727 290.722 248.144 289.156 243.837C287.591 239.531 285.155 235.593 282 232.27C278.65 228.759 274.623 225.963 270.162 224.053C265.7 222.143 260.898 221.159 256.045 221.159C251.192 221.159 246.39 222.143 241.928 224.053C237.467 225.963 233.44 228.759 230.09 232.27C226.916 235.593 224.463 239.536 222.885 243.852C221.307 248.168 220.638 252.763 220.92 257.35L227.14 361.17C227.14 361.343 227.14 361.517 227.14 361.69L227.11 494.64Z" fill="#454550"/>
<path d="M184.84 461.42C144.36 461.42 122.63 446.64 111.52 434.23C99.28 420.55 96.9 407 96.67 405.46C96.6033 405.027 96.5699 404.589 96.57 404.15L96.5 162.48C96.5 160.178 97.4145 157.97 99.0423 156.342C100.67 154.715 102.878 153.8 105.18 153.8C107.48 153.8 109.687 154.713 111.314 156.339C112.942 157.964 113.857 160.17 113.86 162.47L113.94 403.34C114.99 408.27 124.72 444.06 184.85 444.06C187.152 444.06 189.36 444.975 190.988 446.602C192.616 448.23 193.53 450.438 193.53 452.74C193.53 455.042 192.616 457.25 190.988 458.878C189.36 460.506 187.152 461.42 184.85 461.42H184.84Z" fill="#454550"/>
<path d="M325.92 461.34C323.618 461.34 321.41 460.426 319.782 458.798C318.155 457.17 317.24 454.962 317.24 452.66C317.24 450.358 318.155 448.15 319.782 446.522C321.41 444.895 323.618 443.98 325.92 443.98C385.99 443.98 395.81 407.98 396.83 403.25L396.91 162.39C396.913 160.09 397.828 157.884 399.456 156.259C401.083 154.633 403.29 153.72 405.59 153.72C407.892 153.72 410.1 154.635 411.728 156.262C413.356 157.89 414.27 160.098 414.27 162.4L414.19 404.07C414.19 404.509 414.157 404.947 414.09 405.38C413.86 406.88 411.49 420.48 399.24 434.15C388.13 446.56 366.4 461.34 325.92 461.34V461.34Z" fill="#454550"/>
<path d="M142.44 201.58C141.872 201.577 141.306 201.521 140.75 201.41C140.195 201.297 139.652 201.13 139.13 200.91C138.607 200.694 138.108 200.426 137.64 200.11C136.448 199.324 135.471 198.253 134.797 196.994C134.123 195.735 133.773 194.328 133.78 192.9C133.778 192.329 133.835 191.759 133.95 191.2C134.063 190.645 134.23 190.102 134.45 189.58C134.67 189.062 134.934 188.563 135.24 188.09C135.555 187.615 135.917 187.173 136.32 186.77C136.729 186.37 137.174 186.008 137.65 185.69C138.118 185.374 138.617 185.106 139.14 184.89C139.664 184.675 140.206 184.507 140.76 184.39C141.879 184.172 143.03 184.172 144.15 184.39C144.704 184.506 145.247 184.673 145.77 184.89C146.295 185.108 146.797 185.376 147.27 185.69C148.221 186.324 149.036 187.139 149.67 188.09C149.979 188.563 150.246 189.061 150.47 189.58C150.68 190.106 150.847 190.648 150.97 191.2C151.08 191.76 151.137 192.329 151.14 192.9C151.132 195.198 150.219 197.4 148.6 199.03C148.199 199.435 147.757 199.797 147.28 200.11C146.807 200.424 146.304 200.692 145.78 200.91C145.258 201.131 144.715 201.299 144.16 201.41C143.593 201.522 143.017 201.579 142.44 201.58V201.58Z" fill="#454550"/>
<path d="M133.77 350C133.77 347.7 134.683 345.493 136.309 343.866C137.934 342.238 140.14 341.323 142.44 341.32C144.741 341.323 146.948 342.238 148.575 343.865C150.202 345.492 151.117 347.699 151.12 350C151.117 352.3 150.202 354.506 148.574 356.131C146.947 357.757 144.74 358.67 142.44 358.67C140.141 358.67 137.935 357.757 136.309 356.131C134.683 354.505 133.77 352.299 133.77 350ZM133.77 310.72C133.77 308.421 134.683 306.215 136.309 304.589C137.935 302.963 140.141 302.05 142.44 302.05C144.74 302.05 146.947 302.963 148.574 304.589C150.202 306.214 151.117 308.42 151.12 310.72C151.117 313.02 150.202 315.226 148.574 316.851C146.947 318.477 144.74 319.39 142.44 319.39C140.141 319.39 137.935 318.477 136.309 316.851C134.683 315.225 133.77 313.019 133.77 310.72ZM133.77 271.44C133.77 269.141 134.683 266.935 136.309 265.309C137.935 263.683 140.141 262.77 142.44 262.77C144.74 262.77 146.947 263.683 148.574 265.309C150.202 266.934 151.117 269.14 151.12 271.44C151.117 273.741 150.202 275.948 148.575 277.575C146.948 279.202 144.741 280.117 142.44 280.12C140.14 280.117 137.934 279.202 136.309 277.574C134.683 275.947 133.77 273.74 133.77 271.44ZM133.77 232.16C133.77 229.861 134.683 227.655 136.309 226.029C137.935 224.403 140.141 223.49 142.44 223.49C144.74 223.49 146.947 224.403 148.574 226.029C150.202 227.654 151.117 229.86 151.12 232.16C151.12 234.462 150.206 236.67 148.578 238.298C146.95 239.925 144.742 240.84 142.44 240.84C140.141 240.84 137.935 239.927 136.309 238.301C134.683 236.675 133.77 234.469 133.77 232.17V232.16Z" fill="#454550"/>
<path d="M142.44 398C141.872 397.999 141.305 397.938 140.75 397.82C140.195 397.707 139.652 397.54 139.13 397.32C138.61 397.104 138.111 396.839 137.64 396.53C136.68 395.9 135.859 395.08 135.23 394.12C134.921 393.649 134.656 393.15 134.44 392.63C134.22 392.108 134.053 391.565 133.94 391.01C133.715 389.891 133.715 388.739 133.94 387.62C134.053 387.065 134.22 386.522 134.44 386C134.658 385.477 134.922 384.975 135.23 384.5C135.551 384.029 135.912 383.588 136.31 383.18C136.719 382.779 137.164 382.418 137.64 382.1C138.108 381.787 138.608 381.522 139.13 381.31C140.71 380.652 142.451 380.478 144.13 380.81C144.682 380.923 145.221 381.09 145.74 381.31C146.796 381.737 147.756 382.373 148.56 383.18C148.958 383.588 149.319 384.029 149.64 384.5C149.955 384.973 150.222 385.475 150.44 386C150.651 386.525 150.818 387.067 150.94 387.62C151.165 388.739 151.165 389.891 150.94 391.01C150.818 391.563 150.651 392.105 150.44 392.63C150.224 393.152 149.956 393.652 149.64 394.12C149.322 394.596 148.96 395.041 148.56 395.45C146.934 397.071 144.736 397.987 142.44 398V398Z" fill="#454550"/>
<path d="M176.16 191.66C175.021 191.66 173.892 191.435 172.84 190.999C171.787 190.563 170.831 189.923 170.026 189.117C169.221 188.311 168.582 187.354 168.147 186.301C167.712 185.248 167.489 184.119 167.49 182.98C167.488 182.412 167.545 181.846 167.66 181.29C167.773 180.735 167.94 180.192 168.16 179.67C168.378 179.144 168.642 178.639 168.95 178.16C169.583 177.209 170.399 176.393 171.35 175.76C171.823 175.445 172.325 175.177 172.85 174.96C173.373 174.744 173.916 174.576 174.47 174.46C175.589 174.241 176.741 174.241 177.86 174.46C178.414 174.576 178.957 174.744 179.48 174.96C180.535 175.395 181.493 176.034 182.3 176.84C182.7 177.246 183.061 177.688 183.38 178.16C183.691 178.638 183.959 179.144 184.18 179.67C184.392 180.195 184.559 180.737 184.68 181.29C184.906 182.409 184.906 183.561 184.68 184.68C184.559 185.233 184.392 185.775 184.18 186.3C183.961 186.824 183.693 187.326 183.38 187.8C183.064 188.277 182.702 188.723 182.3 189.13C181.9 189.525 181.465 189.884 181 190.2C180.525 190.508 180.023 190.772 179.5 190.99C178.978 191.21 178.435 191.377 177.88 191.49C177.314 191.608 176.738 191.665 176.16 191.66V191.66Z" fill="#454550"/>
<path d="M167.48 375.55C167.483 373.249 168.398 371.042 170.025 369.415C171.653 367.788 173.859 366.873 176.16 366.87C178.461 366.873 180.668 367.788 182.295 369.415C183.922 371.042 184.837 373.249 184.84 375.55C184.837 377.851 183.922 380.058 182.295 381.685C180.668 383.312 178.461 384.227 176.16 384.23C173.859 384.227 171.653 383.312 170.025 381.685C168.398 380.058 167.483 377.851 167.48 375.55V375.55ZM167.48 337.04C167.483 334.74 168.398 332.534 170.026 330.909C171.653 329.283 173.86 328.37 176.16 328.37C178.46 328.37 180.667 329.283 182.294 330.909C183.922 332.534 184.837 334.74 184.84 337.04C184.837 339.34 183.922 341.546 182.294 343.171C180.667 344.797 178.46 345.71 176.16 345.71C175.018 345.71 173.886 345.485 172.831 345.046C171.776 344.608 170.818 343.966 170.012 343.157C169.205 342.348 168.567 341.387 168.132 340.331C167.698 339.274 167.476 338.142 167.48 337V337.04ZM167.48 298.53C167.483 296.229 168.398 294.022 170.025 292.395C171.653 290.768 173.859 289.853 176.16 289.85C178.461 289.853 180.668 290.768 182.295 292.395C183.922 294.022 184.837 296.229 184.84 298.53C184.837 300.831 183.922 303.038 182.295 304.665C180.668 306.292 178.461 307.207 176.16 307.21C173.857 307.207 171.649 306.291 170.022 304.661C168.394 303.032 167.48 300.823 167.48 298.52V298.53ZM167.48 260.02C167.483 257.719 168.398 255.512 170.025 253.885C171.653 252.258 173.859 251.343 176.16 251.34C178.461 251.343 180.668 252.258 182.295 253.885C183.922 255.512 184.837 257.719 184.84 260.02C184.837 262.32 183.922 264.526 182.294 266.151C180.667 267.777 178.46 268.69 176.16 268.69C175.019 268.69 173.89 268.465 172.836 268.028C171.782 267.591 170.825 266.951 170.019 266.144C169.213 265.337 168.574 264.379 168.138 263.325C167.702 262.271 167.479 261.141 167.48 260V260.02ZM167.48 221.51C167.483 219.209 168.398 217.002 170.025 215.375C171.653 213.748 173.859 212.833 176.16 212.83C178.461 212.833 180.668 213.748 182.295 215.375C183.922 217.002 184.837 219.209 184.84 221.51C184.837 223.81 183.922 226.016 182.294 227.641C180.667 229.267 178.46 230.18 176.16 230.18C173.858 230.18 171.65 229.266 170.022 227.638C168.395 226.01 167.48 223.802 167.48 221.5V221.51Z" fill="#454550"/>
<path d="M176.16 422.74C173.859 422.737 171.652 421.822 170.025 420.195C168.398 418.568 167.483 416.361 167.48 414.06C167.481 413.492 167.542 412.926 167.66 412.37C167.773 411.815 167.94 411.272 168.16 410.75C168.376 410.23 168.641 409.731 168.95 409.26C169.586 408.309 170.401 407.49 171.35 406.85C171.825 406.542 172.327 406.278 172.85 406.06C173.901 405.623 175.027 405.398 176.165 405.398C177.303 405.398 178.429 405.623 179.48 406.06C180.003 406.278 180.505 406.542 180.98 406.85C181.457 407.166 181.9 407.531 182.3 407.94C182.702 408.344 183.064 408.786 183.38 409.26C183.693 409.729 183.958 410.228 184.17 410.75C184.39 411.272 184.558 411.815 184.67 412.37C184.789 412.926 184.849 413.492 184.85 414.06C184.849 414.631 184.788 415.201 184.67 415.76C184.556 416.315 184.389 416.858 184.17 417.38C183.954 417.9 183.689 418.399 183.38 418.87C182.587 420.058 181.513 421.031 180.254 421.705C178.994 422.378 177.588 422.73 176.16 422.73V422.74Z" fill="#454550"/>
<path d="M367.58 201.58C367.009 201.577 366.44 201.52 365.88 201.41C365.325 201.297 364.782 201.13 364.26 200.91C363.734 200.695 363.232 200.427 362.76 200.11C361.809 199.477 360.993 198.661 360.36 197.71C360.044 197.242 359.776 196.743 359.56 196.22C359.34 195.698 359.173 195.155 359.06 194.6C358.95 194.043 358.893 193.477 358.89 192.91C358.893 192.339 358.95 191.77 359.06 191.21C359.173 190.655 359.34 190.112 359.56 189.59C359.78 189.069 360.048 188.571 360.36 188.1C360.673 187.623 361.035 187.181 361.44 186.78C361.844 186.378 362.286 186.016 362.76 185.7C363.232 185.383 363.734 185.115 364.26 184.9C364.784 184.685 365.326 184.517 365.88 184.4C367.003 184.182 368.157 184.182 369.28 184.4C369.834 184.517 370.376 184.685 370.9 184.9C371.423 185.116 371.922 185.384 372.39 185.7C372.864 186.016 373.307 186.378 373.71 186.78C374.116 187.181 374.478 187.623 374.79 188.1C375.103 188.57 375.371 189.069 375.59 189.59C375.806 190.114 375.973 190.656 376.09 191.21C376.201 191.77 376.258 192.339 376.26 192.91C376.258 193.477 376.201 194.043 376.09 194.6C375.973 195.154 375.806 195.696 375.59 196.22C375.375 196.743 375.107 197.242 374.79 197.71C374.157 198.661 373.341 199.477 372.39 200.11C371.922 200.426 371.423 200.694 370.9 200.91C370.378 201.13 369.835 201.297 369.28 201.41C368.72 201.52 368.151 201.577 367.58 201.58V201.58Z" fill="#454550"/>
<path d="M358.9 350C358.9 347.7 359.813 345.493 361.439 343.866C363.064 342.238 365.27 341.323 367.57 341.32C369.871 341.323 372.077 342.238 373.705 343.865C375.332 345.492 376.247 347.699 376.25 350C376.247 352.3 375.332 354.506 373.704 356.131C372.077 357.757 369.87 358.67 367.57 358.67C365.27 358.67 363.065 357.757 361.439 356.131C359.813 354.505 358.9 352.299 358.9 350ZM358.9 310.72C358.9 308.421 359.813 306.215 361.439 304.589C363.065 302.963 365.27 302.05 367.57 302.05C369.87 302.05 372.077 302.963 373.704 304.589C375.332 306.214 376.247 308.42 376.25 310.72C376.247 313.02 375.332 315.226 373.704 316.851C372.077 318.477 369.87 319.39 367.57 319.39C365.27 319.39 363.065 318.477 361.439 316.851C359.813 315.225 358.9 313.019 358.9 310.72ZM358.9 271.44C358.9 269.141 359.813 266.935 361.439 265.309C363.065 263.683 365.27 262.77 367.57 262.77C369.87 262.77 372.077 263.683 373.704 265.309C375.332 266.934 376.247 269.14 376.25 271.44C376.247 273.741 375.332 275.948 373.705 277.575C372.077 279.202 369.871 280.117 367.57 280.12C365.27 280.117 363.064 279.202 361.439 277.574C359.813 275.947 358.9 273.74 358.9 271.44ZM358.9 232.16C358.9 229.861 359.813 227.655 361.439 226.029C363.065 224.403 365.27 223.49 367.57 223.49C369.87 223.49 372.077 224.403 373.704 226.029C375.332 227.654 376.247 229.86 376.25 232.16C376.25 234.462 375.335 236.67 373.708 238.298C372.08 239.925 369.872 240.84 367.57 240.84C365.27 240.84 363.065 239.927 361.439 238.301C359.813 236.675 358.9 234.469 358.9 232.17V232.16Z" fill="#454550"/>
<path d="M367.58 398C367.009 397.999 366.439 397.939 365.88 397.82C365.325 397.707 364.782 397.54 364.26 397.32C363.736 397.104 363.234 396.84 362.76 396.53C362.286 396.214 361.844 395.852 361.44 395.45C361.037 395.044 360.675 394.598 360.36 394.12C360.044 393.652 359.776 393.153 359.56 392.63C359.34 392.108 359.173 391.565 359.06 391.01C358.835 389.891 358.835 388.739 359.06 387.62C359.173 387.065 359.34 386.522 359.56 386C359.778 385.475 360.045 384.973 360.36 384.5C360.678 384.027 361.039 383.585 361.44 383.18C361.843 382.777 362.286 382.416 362.76 382.1C363.232 381.786 363.734 381.521 364.26 381.31C365.312 380.873 366.441 380.648 367.58 380.648C368.72 380.648 369.848 380.873 370.9 381.31C371.422 381.522 371.922 381.787 372.39 382.1C372.865 382.416 373.307 382.777 373.71 383.18C374.111 383.585 374.473 384.027 374.79 384.5C375.105 384.973 375.373 385.475 375.59 386C375.81 386.522 375.978 387.065 376.09 387.62C376.201 388.177 376.258 388.743 376.26 389.31C376.257 391.61 375.343 393.814 373.718 395.441C372.093 397.068 369.89 397.985 367.59 397.99L367.58 398Z" fill="#454550"/>
<path d="M333.86 191.66C333.289 191.659 332.719 191.598 332.16 191.48C331.605 191.367 331.062 191.2 330.54 190.98C330.016 190.764 329.514 190.5 329.04 190.19C328.566 189.874 328.124 189.512 327.72 189.11C327.315 188.705 326.953 188.26 326.64 187.78C326.323 187.308 326.055 186.806 325.84 186.28C325.62 185.758 325.453 185.215 325.34 184.66C325.115 183.541 325.115 182.389 325.34 181.27C325.453 180.715 325.62 180.172 325.84 179.65C326.057 179.122 326.325 178.616 326.64 178.14C326.956 177.665 327.317 177.223 327.72 176.82C328.124 176.418 328.566 176.056 329.04 175.74C329.511 175.423 330.014 175.155 330.54 174.94C331.064 174.724 331.606 174.556 332.16 174.44C333.283 174.221 334.437 174.221 335.56 174.44C336.114 174.556 336.657 174.724 337.18 174.94C337.703 175.155 338.202 175.423 338.67 175.74C339.144 176.056 339.586 176.418 339.99 176.82C340.393 177.223 340.755 177.665 341.07 178.14C341.385 178.616 341.653 179.122 341.87 179.65C342.09 180.172 342.258 180.715 342.37 181.27C342.596 182.389 342.596 183.541 342.37 184.66C342.258 185.215 342.09 185.758 341.87 186.28C341.655 186.806 341.387 187.309 341.07 187.78C340.757 188.26 340.395 188.705 339.99 189.11C339.586 189.512 339.144 189.874 338.67 190.19C338.199 190.499 337.7 190.764 337.18 190.98C336.658 191.2 336.115 191.367 335.56 191.48C335.001 191.599 334.431 191.659 333.86 191.66V191.66Z" fill="#454550"/>
<path d="M325.17 375.55C325.17 373.248 326.084 371.04 327.712 369.412C329.34 367.785 331.548 366.87 333.85 366.87C336.15 366.873 338.356 367.788 339.981 369.416C341.607 371.043 342.52 373.25 342.52 375.55C342.52 377.85 341.607 380.057 339.981 381.684C338.356 383.312 336.15 384.227 333.85 384.23C331.548 384.23 329.34 383.316 327.712 381.688C326.084 380.06 325.17 377.852 325.17 375.55ZM325.17 337.04C325.17 335.901 325.395 334.772 325.831 333.72C326.267 332.667 326.907 331.711 327.713 330.906C328.519 330.101 329.476 329.462 330.529 329.027C331.582 328.592 332.711 328.369 333.85 328.37C334.989 328.37 336.116 328.594 337.168 329.03C338.22 329.466 339.176 330.104 339.981 330.909C340.786 331.714 341.424 332.67 341.86 333.722C342.296 334.774 342.52 335.901 342.52 337.04C342.52 339.339 341.607 341.545 339.981 343.171C338.355 344.797 336.149 345.71 333.85 345.71C332.707 345.711 331.575 345.487 330.52 345.049C329.464 344.612 328.505 343.97 327.699 343.16C326.892 342.351 326.253 341.39 325.819 340.332C325.385 339.275 325.165 338.143 325.17 337V337.04ZM325.17 298.53C325.17 296.228 326.084 294.02 327.712 292.392C329.34 290.765 331.548 289.85 333.85 289.85C336.15 289.853 338.356 290.768 339.981 292.396C341.607 294.023 342.52 296.23 342.52 298.53C342.52 300.83 341.607 303.037 339.981 304.664C338.356 306.292 336.15 307.207 333.85 307.21C332.709 307.21 331.58 306.985 330.526 306.548C329.472 306.111 328.515 305.471 327.709 304.664C326.903 303.857 326.263 302.899 325.828 301.845C325.392 300.791 325.169 299.661 325.17 298.52V298.53ZM325.17 260.02C325.17 257.718 326.084 255.51 327.712 253.882C329.34 252.255 331.548 251.34 333.85 251.34C336.15 251.343 338.356 252.258 339.981 253.886C341.607 255.513 342.52 257.72 342.52 260.02C342.52 261.159 342.296 262.286 341.86 263.338C341.424 264.39 340.786 265.346 339.981 266.151C339.176 266.956 338.22 267.594 337.168 268.03C336.116 268.466 334.989 268.69 333.85 268.69C332.709 268.691 331.579 268.467 330.524 268.031C329.47 267.595 328.512 266.954 327.706 266.147C326.899 265.34 326.26 264.381 325.825 263.326C325.39 262.271 325.167 261.141 325.17 260V260.02ZM325.17 221.51C325.17 219.208 326.084 217 327.712 215.372C329.34 213.745 331.548 212.83 333.85 212.83C336.15 212.833 338.356 213.748 339.981 215.376C341.607 217.003 342.52 219.21 342.52 221.51C342.52 223.809 341.607 226.015 339.981 227.641C338.355 229.267 336.149 230.18 333.85 230.18C332.71 230.181 331.58 229.958 330.527 229.522C329.473 229.086 328.516 228.447 327.709 227.641C326.903 226.834 326.264 225.877 325.828 224.823C325.392 223.77 325.169 222.64 325.17 221.5V221.51Z" fill="#454550"/>
<path d="M333.85 422.74C331.552 422.732 329.35 421.82 327.72 420.2C327.314 419.799 326.952 419.357 326.64 418.88C326.327 418.409 326.06 417.911 325.84 417.39C325.626 416.866 325.459 416.324 325.34 415.77C325.229 415.21 325.173 414.641 325.17 414.07C325.173 413.503 325.23 412.937 325.34 412.38C325.457 411.826 325.624 411.284 325.84 410.76C326.055 410.238 326.323 409.738 326.64 409.27C327.276 408.319 328.091 407.5 329.04 406.86C329.514 406.55 330.016 406.286 330.54 406.07C331.592 405.633 332.72 405.408 333.86 405.408C334.999 405.408 336.128 405.633 337.18 406.07C337.7 406.286 338.199 406.551 338.67 406.86C339.148 407.178 339.594 407.544 340 407.95C340.402 408.351 340.761 408.794 341.07 409.27C341.387 409.738 341.655 410.237 341.87 410.76C342.09 411.282 342.258 411.825 342.37 412.38C342.48 412.937 342.537 413.503 342.54 414.07C342.537 414.641 342.48 415.21 342.37 415.77C342.256 416.325 342.089 416.868 341.87 417.39C341.651 417.911 341.383 418.41 341.07 418.88C340.761 419.357 340.402 419.799 340 420.2C338.362 421.82 336.154 422.732 333.85 422.74V422.74Z" fill="#454550"/>
<path d="M269.51 186.2H242.51C234.459 186.189 226.74 182.986 221.047 177.293C215.354 171.6 212.15 163.881 212.14 155.83V146.57C212.14 144.268 213.054 142.06 214.682 140.432C216.31 138.805 218.518 137.89 220.82 137.89C223.122 137.89 225.33 138.805 226.958 140.432C228.585 142.06 229.5 144.268 229.5 146.57V155.83C229.5 159.278 230.87 162.584 233.308 165.022C235.745 167.46 239.052 168.83 242.5 168.83H269.5C272.948 168.83 276.254 167.46 278.692 165.022C281.13 162.584 282.5 159.278 282.5 155.83V148.09C282.5 145.788 283.414 143.58 285.042 141.952C286.67 140.325 288.878 139.41 291.18 139.41C293.482 139.41 295.69 140.325 297.318 141.952C298.945 143.58 299.86 145.788 299.86 148.09V155.83C299.849 163.878 296.649 171.593 290.96 177.286C285.271 182.979 277.558 186.184 269.51 186.2V186.2Z" fill="#454550"/>
<path d="M255.26 384.06C252.958 384.06 250.75 383.146 249.122 381.518C247.495 379.89 246.58 377.682 246.58 375.38V307.45C246.58 305.148 247.495 302.94 249.122 301.312C250.75 299.685 252.958 298.77 255.26 298.77C257.562 298.77 259.77 299.685 261.398 301.312C263.026 302.94 263.94 305.148 263.94 307.45V375.39C263.937 377.69 263.022 379.896 261.394 381.521C259.767 383.147 257.56 384.06 255.26 384.06V384.06Z" fill="#454550"/>
<path d="M256 107.6C268.321 107.6 278.31 97.6115 278.31 85.29C278.31 72.9685 268.321 62.98 256 62.98C243.678 62.98 233.69 72.9685 233.69 85.29C233.69 97.6115 243.678 107.6 256 107.6Z" fill="#911439"/>
<path d="M256 116.29C249.869 116.29 243.875 114.472 238.777 111.066C233.679 107.659 229.706 102.818 227.36 97.1532C225.013 91.4887 224.4 85.2556 225.596 79.2422C226.792 73.2288 229.744 67.7051 234.08 63.3697C238.415 59.0343 243.939 56.0818 249.952 54.8856C255.966 53.6895 262.199 54.3034 267.863 56.6497C273.528 58.996 278.369 62.9694 281.776 68.0673C285.182 73.1652 287 79.1588 287 85.29C287 93.5117 283.734 101.397 277.92 107.21C272.107 113.024 264.222 116.29 256 116.29V116.29ZM256 71.66C253.302 71.66 250.665 72.46 248.422 73.9587C246.179 75.4575 244.431 77.5878 243.398 80.0802C242.366 82.5726 242.096 85.3151 242.622 87.961C243.148 90.6069 244.447 93.0373 246.355 94.9449C248.263 96.8525 250.693 98.1516 253.339 98.6779C255.985 99.2042 258.727 98.9341 261.22 97.9017C263.712 96.8693 265.842 95.1211 267.341 92.878C268.84 90.6349 269.64 87.9977 269.64 85.3C269.637 81.6833 268.199 78.2154 265.642 75.658C263.085 73.1006 259.617 71.6626 256 71.66V71.66Z" fill="#454550"/>
</g>
<defs>
<clipPath id="clip0_4:278">
<rect width="512" height="512" fill="white"/>
</clipPath>
</defs>
</svg>
