<svg width="512" height="512" viewBox="0 0 512 512" fill="none" xmlns="http://www.w3.org/2000/svg">
<g clip-path="url(#clip0_4:316)">
<path d="M402.85 28.08C402.85 23.4493 401.01 19.0083 397.736 15.7339C394.462 12.4595 390.021 10.62 385.39 10.62H326.07C321.439 10.62 316.998 12.4595 313.724 15.7339C310.45 19.0083 308.61 23.4493 308.61 28.08V239.93H402.85V28.08Z" fill="#911439"/>
<path d="M402.85 248.58H308.61C306.313 248.58 304.111 247.668 302.486 246.044C300.862 244.419 299.95 242.217 299.95 239.92V28.08C299.966 21.1611 302.724 14.5307 307.62 9.64206C312.516 4.7534 319.151 2.00528 326.07 2H385.39C392.314 2.00794 398.952 4.76273 403.847 9.65975C408.742 14.5568 411.495 21.1959 411.5 28.12V239.93C411.497 242.223 410.585 244.422 408.964 246.044C407.342 247.665 405.143 248.577 402.85 248.58V248.58ZM317.27 231.27H394.19V28.08C394.187 25.7469 393.259 23.5101 391.61 21.8604C389.96 20.2106 387.723 19.2826 385.39 19.28H326.07C323.737 19.2826 321.5 20.2106 319.85 21.8604C318.201 23.5101 317.273 25.7469 317.27 28.08V231.27Z" fill="#454550"/>
<path d="M308.61 239.93V487.8C308.61 491.924 310.248 495.879 313.164 498.796C316.081 501.712 320.036 503.35 324.16 503.35H387.31C391.434 503.35 395.389 501.712 398.306 498.796C401.222 495.879 402.86 491.924 402.86 487.8V239.93H308.61Z" fill="#EFCEC9"/>
<path d="M387.31 512H324.16C317.751 511.981 311.611 509.425 307.083 504.889C302.555 500.354 300.008 494.209 300 487.8V239.93C300 237.633 300.912 235.431 302.536 233.806C304.161 232.182 306.363 231.27 308.66 231.27H402.9C405.197 231.27 407.399 232.182 409.024 233.806C410.648 235.431 411.56 237.633 411.56 239.93V487.8C411.552 494.224 408.993 500.383 404.446 504.921C399.898 509.459 393.734 512.005 387.31 512V512ZM317.31 248.59V487.8C317.313 489.627 318.039 491.378 319.331 492.669C320.623 493.961 322.373 494.687 324.2 494.69H387.35C389.177 494.687 390.928 493.961 392.219 492.669C393.511 491.378 394.237 489.627 394.24 487.8V248.59H317.31Z" fill="#454550"/>
<path d="M474.64 502.67C465.22 502.67 457.58 495.74 457.58 487.19V121.12L474.64 12.64L491.7 121.12V487.19C491.7 495.74 484.06 502.67 474.64 502.67Z" fill="#EFCEC9"/>
<path d="M474.64 511.33C460.46 511.33 448.92 500.5 448.92 487.19V121.12C448.922 120.671 448.959 120.223 449.03 119.78L466.09 11.29C466.417 9.25782 467.457 7.4086 469.024 6.07378C470.591 4.73897 472.582 4.00586 474.64 4.00586C476.698 4.00586 478.689 4.73897 480.256 6.07378C481.823 7.4086 482.863 9.25782 483.19 11.29L500.25 119.77C500.321 120.213 500.358 120.661 500.36 121.11V487.19C500.36 500.5 488.82 511.33 474.64 511.33ZM466.24 121.8V487.19C466.24 490.95 470.01 494.01 474.64 494.01C479.27 494.01 483.04 490.95 483.04 487.19V121.8L474.64 68.36L466.24 121.8Z" fill="#454550"/>
<path d="M344.28 119C343.143 119 342.017 118.776 340.966 118.341C339.915 117.906 338.961 117.268 338.156 116.464C337.352 115.659 336.714 114.705 336.279 113.654C335.844 112.603 335.62 111.477 335.62 110.34V53.43C335.696 51.1854 336.642 49.0583 338.256 47.4975C339.871 45.9367 342.029 45.0642 344.275 45.0642C346.521 45.0642 348.679 45.9367 350.294 47.4975C351.908 49.0583 352.854 51.1854 352.93 53.43V110.32C352.933 111.458 352.711 112.586 352.277 113.638C351.844 114.69 351.208 115.647 350.404 116.453C349.601 117.259 348.646 117.899 347.596 118.336C346.545 118.773 345.418 118.999 344.28 119V119Z" fill="white"/>
<path d="M256.33 303.73L190.61 155.81C190.23 154.74 189.8 153.72 189.34 152.75V99.2201C189.34 92.5401 187.69 74.4101 184.58 68.6801L168.81 26.6801C162.73 15.5001 155.7 8.68005 143.81 8.68005C131.92 8.68005 124.92 15.5301 118.81 26.6801L103.04 68.6801C99.92 74.4101 98.28 92.5501 98.28 99.2201V150.22C97.2194 152.012 96.332 153.9 95.63 155.86L30 303.73C22.11 325.63 18.88 340.28 20.91 362.82L34.31 488.35C37.31 502.11 43.49 504.35 48.14 503C57.25 501.37 59.24 501.95 57.14 480.33L49.33 361.95C48.2 349.46 54 333.21 58.33 321.08L124.04 173.16C124.813 171.005 125.382 168.782 125.74 166.52H160.47C160.828 168.782 161.397 171.005 162.17 173.16L227.88 321.08C232.25 333.22 238.05 351.92 236.88 364.41L229.7 477.88C227.57 499.5 229.07 501.37 238.18 503.01C242.83 504.36 249.03 502.12 252.01 488.36L265.41 365.29C267.45 342.73 264.22 325.62 256.33 303.73V303.73Z" fill="#CE7F86"/>
<path d="M45.81 512C42.8398 511.999 39.9259 511.19 37.38 509.66C31.79 506.33 27.91 499.77 25.83 490.18C25.7638 489.88 25.7137 489.576 25.68 489.27L12.29 363.74V363.6C10.08 339.07 13.77 323.21 21.85 300.79C21.9233 300.597 22 300.403 22.08 300.21L87.66 152.56C88.2345 150.985 88.9023 149.446 89.66 147.95V99.22C89.66 95.58 90.66 74.3 95.15 65.22L110.75 23.69C110.891 23.3155 111.058 22.9513 111.25 22.6C116.53 12.87 125.63 0 143.84 0C162.05 0 171.15 12.87 176.41 22.55C176.602 22.9012 176.769 23.2655 176.91 23.64L192.51 65.17C196.97 74.29 198 95.57 198 99.17V150.87C198.227 151.417 198.443 151.963 198.65 152.51L264.24 300.17C264.327 300.363 264.403 300.557 264.47 300.75C271.89 321.33 276.35 340.3 274.03 366.01V366.17L260.63 489.24C260.596 489.542 260.546 489.843 260.48 490.14C258.4 499.74 254.48 506.29 248.93 509.62C247.045 510.749 244.952 511.489 242.776 511.797C240.6 512.104 238.384 511.973 236.26 511.41C218.93 508.14 219.14 496.79 221.07 477.14L228.34 363.81C228.34 363.73 228.34 363.66 228.34 363.59C229.07 355.46 226.07 341.51 219.87 324.27L154.3 176.67C154.213 176.477 154.137 176.283 154.07 176.09C153.963 175.783 153.857 175.477 153.75 175.17H132.56C132.46 175.477 132.353 175.783 132.24 176.09C132.17 176.29 132.09 176.48 132.01 176.67L66.42 324.3C62.62 334.84 57 350.56 58 361.17V361.38L65.76 479.63C66.82 490.8 67 497.37 65 502.19C62 509.38 55.47 510.51 50.73 511.34L50.05 511.46C48.6653 511.819 47.2405 512 45.81 512V512ZM42.81 487C44 492.23 45.46 494.11 46 494.65L46.56 494.53L47.67 494.34L49.15 494.07C49.2041 489.779 48.9669 485.489 48.44 481.23C48.44 481.14 48.44 481.04 48.44 480.95L40.7 362.61C39.43 348.1 45.7 330.79 50.24 318.13C50.3133 317.937 50.39 317.743 50.47 317.55L116 169.94C116.54 168.378 116.941 166.772 117.2 165.14C117.526 163.107 118.565 161.256 120.132 159.92C121.699 158.584 123.691 157.85 125.75 157.85H160.48C162.539 157.85 164.531 158.584 166.098 159.92C167.665 161.256 168.704 163.107 169.03 165.14C169.285 166.768 169.684 168.371 170.22 169.93L235.8 317.55C235.887 317.743 235.963 317.937 236.03 318.13C243.31 338.33 246.52 354.13 245.57 365.05L238.3 478.42V478.71C237.52 486.63 237.3 491.77 237.63 494.04C238.08 494.15 238.73 494.29 239.7 494.46L240.26 494.58C240.8 494.04 242.26 492.16 243.45 486.92L256.8 364.42C258.57 344.75 256.26 329.14 248.29 306.96L182.7 159.32C182.613 159.127 182.537 158.933 182.47 158.74C182.19 157.98 181.87 157.21 181.47 156.45C180.922 155.29 180.638 154.023 180.64 152.74V99.22C180.64 91.31 178.64 76.04 176.93 72.81C176.738 72.4588 176.571 72.0945 176.43 71.72L160.92 30.31C154.92 19.51 149.92 17.31 143.84 17.31C137.76 17.31 132.75 19.5 126.76 30.31L111.21 71.72C111.069 72.0945 110.902 72.4587 110.71 72.81C109 76 107 91.31 107 99.22V150.22C107 151.78 106.578 153.31 105.78 154.65C105.003 155.969 104.354 157.358 103.84 158.8C103.77 159 103.69 159.19 103.61 159.38L38 307C30.71 327.27 27.58 340.74 29.49 362L42.81 487Z" fill="#454550"/>
<path d="M189.34 116.89C188.262 116.889 187.193 116.685 186.19 116.29L140.69 98.49C139.069 97.8549 137.678 96.7462 136.697 95.3084C135.716 93.8707 135.191 92.1706 135.19 90.43V8.66005C135.151 7.4987 135.345 6.34129 135.762 5.25674C136.18 4.1722 136.811 3.1827 137.618 2.34719C138.426 1.51168 139.393 0.847246 140.463 0.393457C141.533 -0.060331 142.683 -0.294189 143.845 -0.294189C145.007 -0.294189 146.157 -0.060331 147.227 0.393457C148.297 0.847246 149.264 1.51168 150.072 2.34719C150.879 3.1827 151.51 4.1722 151.928 5.25674C152.345 6.34129 152.539 7.4987 152.5 8.66005V84.52L192.5 100.17C194.377 100.908 195.937 102.277 196.913 104.042C197.888 105.807 198.217 107.857 197.842 109.838C197.468 111.82 196.413 113.608 194.861 114.896C193.309 116.183 191.356 116.888 189.34 116.89V116.89Z" fill="#454550"/>
<path d="M237.09 368.22C235.348 368.219 233.647 367.692 232.209 366.709C230.772 365.726 229.664 364.333 229.03 362.71C224.31 350.65 195.26 338.95 167.17 327.63C158.42 324.1 149.37 320.46 140.49 316.63C95.49 297.13 89.7 237.36 89.49 234.82C89.3668 232.579 90.1187 230.377 91.5871 228.68C93.0556 226.982 95.1258 225.921 97.3615 225.72C99.5971 225.519 101.823 226.194 103.571 227.602C105.319 229.011 106.451 231.043 106.73 233.27C106.8 234 112.01 285.39 147.39 300.74C156.06 304.5 165.01 308.1 173.65 311.59C208.03 325.44 237.73 337.41 245.16 356.43C245.672 357.742 245.857 359.16 245.698 360.559C245.538 361.959 245.04 363.298 244.246 364.462C243.452 365.625 242.386 366.577 241.141 367.236C239.896 367.894 238.509 368.239 237.1 368.24L237.09 368.22Z" fill="#454550"/>
<path d="M143.19 141.05C140.893 141.05 138.691 140.138 137.066 138.514C135.442 136.89 134.53 134.687 134.53 132.39V131.9C134.491 130.739 134.685 129.581 135.102 128.497C135.52 127.412 136.151 126.423 136.958 125.587C137.766 124.752 138.733 124.087 139.803 123.633C140.873 123.18 142.023 122.946 143.185 122.946C144.347 122.946 145.497 123.18 146.567 123.633C147.637 124.087 148.604 124.752 149.412 125.587C150.219 126.423 150.85 127.412 151.268 128.497C151.685 129.581 151.879 130.739 151.84 131.9V132.39C151.84 134.685 150.929 136.886 149.307 138.51C147.685 140.134 145.485 141.047 143.19 141.05V141.05Z" fill="#454550"/>
</g>
<defs>
<clipPath id="clip0_4:316">
<rect width="512" height="512" fill="white"/>
</clipPath>
</defs>
</svg>
