<svg width="512" height="512" viewBox="0 0 512 512" fill="none" xmlns="http://www.w3.org/2000/svg">
<path d="M64 464H295L292.881 465.565C291.174 466.826 290.038 468.713 289.723 470.811C289.408 472.909 289.939 475.047 291.199 476.754C292.46 478.46 294.347 479.596 296.445 479.911C298.544 480.227 300.681 479.696 302.388 478.435L309.101 473.475L309.681 474.194C310.834 475.622 312.443 476.61 314.239 476.992C316.034 477.375 317.906 477.128 319.541 476.294L343.671 464H448C454.363 463.993 460.463 461.462 464.963 456.963C469.462 452.463 471.993 446.363 472 440V362.217L487.065 350.068C490.76 347.088 493.488 343.08 494.905 338.55C496.321 334.019 496.363 329.171 495.024 324.617C493.685 320.063 491.026 316.008 487.383 312.966C483.74 309.923 479.277 308.029 474.557 307.523C473.708 307.433 472.854 307.388 472 307.387V88C471.993 81.637 469.462 75.5367 464.963 71.0373C460.463 66.538 454.363 64.0071 448 64H423.356C420.383 45.764 407.456 32 392 32C376.544 32 363.617 45.764 360.644 64H287.356C284.383 45.764 271.456 32 256 32C240.544 32 227.617 45.764 224.644 64H159.356C156.383 45.764 143.456 32 128 32C112.544 32 99.617 45.764 96.644 64H64C57.637 64.0071 51.5367 66.538 47.0373 71.0373C42.538 75.5367 40.0071 81.637 40 88V440C40.0071 446.363 42.538 452.463 47.0373 456.963C51.5367 461.462 57.637 463.993 64 464V464ZM318.058 459.1L314.774 455.028L324.99 442.2L325.49 442.82L332.625 451.668L318.058 459.1ZM336 410.228L328.842 416H264V360H336V410.228ZM336 344H264V288H336V344ZM336 272H264V216H336V272ZM336 200H264V184H336V200ZM336.34 430.789C337.221 430.241 429.613 355.289 429.613 355.289L439.657 367.743L346.246 443.072L336.34 430.789ZM424 216V272H352V216H424ZM352 200V184H424V200H352ZM424 288V339.263L418.125 344H352V288H424ZM398.285 360L352 397.325V360H398.285ZM424 400.926V416H405.307L424 400.926ZM456 440C455.998 442.121 455.154 444.154 453.654 445.654C452.154 447.154 450.121 447.998 448 448H365.626L385.467 432H432C434.122 432 436.157 431.157 437.657 429.657C439.157 428.157 440 426.122 440 424V388.023L455.928 375.178L456 375.12V440ZM466.978 325.159C468.631 323.844 470.738 323.236 472.837 323.468C474.937 323.7 476.86 324.753 478.186 326.398C479.512 328.043 480.134 330.145 479.916 332.246C479.697 334.347 478.657 336.277 477.021 337.614L470.794 342.636L460.75 330.181L466.978 325.159ZM458.271 352.734L452.112 357.701L442.068 345.247L448.295 340.225L458.33 352.669C458.31 352.689 458.292 352.713 458.271 352.734ZM392 48C398.813 48 404.794 54.784 407.046 64H376.954C379.206 54.784 385.187 48 392 48ZM256 48C262.813 48 268.794 54.784 271.046 64H240.954C243.206 54.784 249.187 48 256 48ZM128 48C134.813 48 140.794 54.784 143.046 64H112.954C115.206 54.784 121.187 48 128 48ZM56 88C56.0024 85.879 56.846 83.8456 58.3458 82.3458C59.8456 80.846 61.879 80.0024 64 80H96.644C99.617 98.236 112.544 112 128 112C130.122 112 132.157 111.157 133.657 109.657C135.157 108.157 136 106.122 136 104C136 101.878 135.157 99.8434 133.657 98.3431C132.157 96.8429 130.122 96 128 96C121.187 96 115.206 89.216 112.954 80H224.644C227.617 98.236 240.544 112 256 112C258.122 112 260.157 111.157 261.657 109.657C263.157 108.157 264 106.122 264 104C264 101.878 263.157 99.8434 261.657 98.3431C260.157 96.8429 258.122 96 256 96C249.187 96 243.206 89.216 240.954 80H360.644C363.617 98.236 376.544 112 392 112C394.122 112 396.157 111.157 397.657 109.657C399.157 108.157 400 106.122 400 104C400 101.878 399.157 99.8434 397.657 98.3431C396.157 96.8429 394.122 96 392 96C385.187 96 379.206 89.216 376.954 80H448C450.121 80.0024 452.154 80.846 453.654 82.3458C455.154 83.8456 455.998 85.879 456 88V128H56V88ZM56 144H456V313.457L440 326.357V176C440 173.878 439.157 171.843 437.657 170.343C436.157 168.843 434.122 168 432 168H80C77.8783 168 75.8434 168.843 74.3431 170.343C72.8429 171.843 72 173.878 72 176V424C72 426.122 72.8429 428.157 74.3431 429.657C75.8434 431.157 77.8783 432 80 432H312.663L299.912 448H64C61.879 447.998 59.8456 447.154 58.3458 445.654C56.846 444.154 56.0024 442.121 56 440V144ZM176 344V288H248V344H176ZM248 360V416H176V360H248ZM176 272V216H248V272H176ZM176 200V184H248V200H176ZM88 344V288H160V344H88ZM160 360V416H88V360H160ZM88 272V216H160V272H88ZM88 200V184H160V200H88ZM229.657 309.657L223.313 316L229.657 322.343C230.4 323.086 230.989 323.968 231.391 324.938C231.793 325.909 232 326.949 232 328C232 329.051 231.793 330.091 231.391 331.062C230.989 332.032 230.4 332.914 229.657 333.657C228.914 334.4 228.032 334.989 227.062 335.391C226.091 335.793 225.051 336 224 336C222.949 336 221.909 335.793 220.938 335.391C219.968 334.989 219.086 334.4 218.343 333.657L212 327.313L205.657 333.657C204.157 335.157 202.122 336 200 336C197.878 336 195.843 335.157 194.343 333.657C192.843 332.157 192 330.122 192 328C192 325.878 192.843 323.843 194.343 322.343L200.687 316L194.343 309.657C193.6 308.914 193.011 308.032 192.609 307.062C192.207 306.091 192 305.051 192 304C192 302.949 192.207 301.909 192.609 300.938C193.011 299.968 193.6 299.086 194.343 298.343C195.086 297.6 195.968 297.011 196.938 296.609C197.909 296.207 198.949 296 200 296C201.051 296 202.091 296.207 203.062 296.609C204.032 297.011 204.914 297.6 205.657 298.343L212 304.687L218.343 298.343C219.843 296.843 221.878 296 224 296C226.122 296 228.157 296.843 229.657 298.343C231.157 299.843 232 301.878 232 304C232 306.122 231.157 308.157 229.657 309.657V309.657ZM370.343 250.343L376.687 244L370.343 237.657C368.843 236.157 368 234.122 368 232C368 229.878 368.843 227.843 370.343 226.343C371.843 224.843 373.878 224 376 224C378.122 224 380.157 224.843 381.657 226.343L388 232.687L394.343 226.343C395.843 224.843 397.878 224 400 224C402.122 224 404.157 224.843 405.657 226.343C407.157 227.843 408 229.878 408 232C408 234.122 407.157 236.157 405.657 237.657L399.313 244L405.657 250.343C407.157 251.843 408 253.878 408 256C408 258.122 407.157 260.157 405.657 261.657C404.157 263.157 402.122 264 400 264C397.878 264 395.843 263.157 394.343 261.657L388 255.313L381.657 261.657C380.914 262.4 380.032 262.989 379.062 263.391C378.091 263.793 377.051 264 376 264C374.949 264 373.909 263.793 372.938 263.391C371.968 262.989 371.086 262.4 370.343 261.657C369.6 260.914 369.011 260.032 368.609 259.062C368.207 258.091 368 257.051 368 256C368 254.949 368.207 253.909 368.609 252.938C369.011 251.968 369.6 251.086 370.343 250.343V250.343Z" fill="#BCBCB7"/>
</svg>
