<svg width="512" height="512" viewBox="0 0 512 512" fill="none" xmlns="http://www.w3.org/2000/svg">
<path d="M398.588 128C398.588 125.878 397.745 123.844 396.245 122.343C394.745 120.843 392.71 120 390.588 120H388.706V69.3732C388.706 48.6642 372.801 31.8462 352.496 31.0862C342.593 30.6932 332.937 34.2363 325.639 40.9412H272C269.878 40.9412 267.843 41.784 266.343 43.2843C264.843 44.7846 264 46.8194 264 48.9412V88.4712C264 90.5929 264.843 92.6277 266.343 94.128C267.843 95.6283 269.878 96.4712 272 96.4712H313.412V120H311.529C309.407 120 307.372 120.843 305.872 122.343C304.372 123.844 303.529 125.878 303.529 128V168.037C278.068 194.573 263.897 229.952 264 266.727V320.312C256.346 310.303 247.352 301.394 237.271 293.835C236.4 293.182 235.406 292.714 234.348 292.458C233.29 292.203 232.191 292.166 231.118 292.35C230.045 292.534 229.022 292.935 228.109 293.529C227.197 294.122 226.415 294.895 225.812 295.801L225.452 296.342C214.083 313.424 196.743 325.643 176.832 330.604L160.469 334.7C151.85 336.845 144.038 341.445 137.981 347.941C131.925 354.438 127.883 362.552 126.346 371.3H121.883C117.641 371.305 113.574 372.993 110.575 375.992C107.575 378.991 105.888 383.058 105.883 387.3V412.741C102.918 414.225 100.424 416.504 98.6784 419.323C96.9332 422.142 96.0059 425.391 96 428.706V488C96 490.122 96.8429 492.157 98.3431 493.657C99.8434 495.157 101.878 496 104 496H430.117C432.239 496 434.274 495.157 435.774 493.657C437.274 492.157 438.117 490.122 438.117 488V266.727C438.22 229.952 424.049 194.573 398.588 168.037V128ZM380.706 136H382.588V163.294H319.529V136H380.706ZM280 80.4712V56.9412H328.967C330.092 56.9412 331.205 56.704 332.232 56.245C333.259 55.7859 334.178 55.1154 334.928 54.2772C337.052 51.9026 339.675 50.0262 342.608 48.7816C345.541 47.537 348.712 46.9551 351.896 47.0772C363.371 47.5072 372.706 57.5102 372.706 69.3772V120H329.412V88.4712C329.412 86.3494 328.569 84.3146 327.069 82.8143C325.569 81.314 323.534 80.4712 321.412 80.4712H280ZM164.35 350.218L180.713 346.126C201.796 340.874 220.544 328.781 234.022 311.739C252.243 327.404 265.393 348.135 271.8 371.294H142.727C144.139 366.18 146.886 361.532 150.685 357.829C154.485 354.125 159.201 351.499 164.35 350.218ZM121.883 387.294H293.647V410.823H121.883V387.294ZM303.529 480H112V428.706C112.001 428.207 112.199 427.729 112.552 427.376C112.905 427.023 113.384 426.824 113.883 426.823H301.647C302.146 426.824 302.625 427.022 302.978 427.375C303.33 427.728 303.529 428.207 303.529 428.706V480ZM422.117 266.727V480H319.529V428.706C319.524 425.39 318.597 422.14 316.852 419.32C315.107 416.499 312.613 414.22 309.647 412.735V387.294C309.642 383.052 307.955 378.985 304.955 375.986C301.956 372.986 297.889 371.299 293.647 371.294H288.318C286.305 362.982 283.52 354.876 280 347.081C280 347.052 280 347.024 280 346.996V266.727C279.908 234.17 292.414 202.839 314.9 179.294H387.215C409.702 202.839 422.209 234.17 422.117 266.727ZM408 368V400C408 402.122 407.157 404.157 405.657 405.657C404.157 407.157 402.122 408 400 408C397.878 408 395.843 407.157 394.343 405.657C392.843 404.157 392 402.122 392 400V368C392 365.878 392.843 363.844 394.343 362.343C395.843 360.843 397.878 360 400 360C402.122 360 404.157 360.843 405.657 362.343C407.157 363.844 408 365.878 408 368ZM408 432V440C408 442.122 407.157 444.157 405.657 445.657C404.157 447.157 402.122 448 400 448C397.878 448 395.843 447.157 394.343 445.657C392.843 444.157 392 442.122 392 440V432C392 429.878 392.843 427.844 394.343 426.343C395.843 424.843 397.878 424 400 424C402.122 424 404.157 424.843 405.657 426.343C407.157 427.844 408 429.878 408 432Z" fill="#BCBCB7"/>
</svg>
