<svg width="512" height="512" viewBox="0 0 512 512" fill="none" xmlns="http://www.w3.org/2000/svg">
<path d="M412.155 116.032L410.931 122.156C409.663 128.405 406.656 134.168 402.256 138.783C397.855 143.397 392.241 146.675 386.06 148.239C384.329 148.672 382.793 149.671 381.695 151.077C380.597 152.483 380.001 154.216 380.001 156C380.001 157.784 380.597 159.517 381.695 160.923C382.793 162.329 384.329 163.328 386.06 163.761L387.388 164.093C393.316 165.568 398.73 168.63 403.05 172.95C407.37 177.269 410.432 182.684 411.907 188.612L412.239 189.94C412.672 191.671 413.671 193.207 415.077 194.305C416.483 195.403 418.216 195.999 420 195.999C421.784 195.999 423.517 195.403 424.923 194.305C426.329 193.207 427.328 191.671 427.761 189.94L428.093 188.612C429.568 182.684 432.63 177.269 436.95 172.95C441.27 168.63 446.684 165.568 452.612 164.093L453.94 163.761C455.671 163.328 457.207 162.329 458.305 160.923C459.403 159.517 459.999 157.784 459.999 156C459.999 154.216 459.403 152.483 458.305 151.077C457.207 149.671 455.671 148.672 453.94 148.239C447.759 146.675 442.145 143.397 437.744 138.783C433.344 134.168 430.337 128.405 429.069 122.156L427.845 116.032C427.483 114.218 426.503 112.586 425.073 111.413C423.642 110.24 421.85 109.599 420 109.599C418.15 109.599 416.358 110.24 414.927 111.413C413.497 112.586 412.517 114.218 412.155 116.032V116.032ZM432.842 155.672C427.821 159.081 423.468 163.383 420 168.365C416.532 163.383 412.179 159.081 407.158 155.672C412.271 151.927 416.628 147.248 420 141.882C423.372 147.248 427.729 151.927 432.842 155.672V155.672ZM54.06 290.961L55.388 291.293C61.316 292.768 66.7304 295.83 71.05 300.15C75.3697 304.469 78.4315 309.884 79.907 315.812L80.239 317.141C80.6718 318.872 81.6707 320.408 83.0769 321.506C84.4832 322.604 86.216 323.2 88 323.2C89.784 323.2 91.5169 322.604 92.9231 321.506C94.3293 320.408 95.3282 318.872 95.761 317.141L96.093 315.812C97.5685 309.884 100.63 304.469 104.95 300.15C109.27 295.83 114.684 292.768 120.612 291.293L121.94 290.961C123.671 290.528 125.207 289.529 126.305 288.123C127.403 286.717 127.999 284.984 127.999 283.2C127.999 281.416 127.403 279.683 126.305 278.277C125.207 276.871 123.671 275.872 121.94 275.439C115.758 273.875 110.144 270.598 105.744 265.983C101.344 261.368 98.3368 255.605 97.069 249.356L95.845 243.231C95.4827 241.417 94.503 239.785 93.0726 238.612C91.6423 237.439 89.8497 236.798 88 236.798C86.1503 236.798 84.3577 237.439 82.9274 238.612C81.4971 239.785 80.5174 241.417 80.155 243.231L78.931 249.356C77.6632 255.605 74.656 261.368 70.2559 265.983C65.8557 270.598 60.2415 273.875 54.06 275.439C52.3293 275.872 50.7929 276.871 49.695 278.277C48.5972 279.683 48.0009 281.416 48.0009 283.2C48.0009 284.984 48.5972 286.717 49.695 288.123C50.7929 289.529 52.3293 290.528 54.06 290.961V290.961ZM88 269.082C91.3719 274.448 95.7293 279.127 100.842 282.872C95.8205 286.281 91.4677 290.583 88 295.565C84.5324 290.583 80.1795 286.281 75.158 282.872C80.2707 279.127 84.6281 274.448 88 269.082V269.082ZM346.06 82.1609L347.388 82.4929C353.316 83.9683 358.73 87.0302 363.05 91.3498C367.37 95.6695 370.432 101.084 371.907 107.012L372.239 108.34C372.672 110.071 373.671 111.607 375.077 112.705C376.483 113.803 378.216 114.399 380 114.399C381.784 114.399 383.517 113.803 384.923 112.705C386.329 111.607 387.328 110.071 387.761 108.34L388.093 107.012C389.568 101.084 392.63 95.6695 396.95 91.3498C401.27 87.0302 406.684 83.9683 412.612 82.4929L413.94 82.1609C415.671 81.7281 417.207 80.7292 418.305 79.3229C419.403 77.9167 419.999 76.1839 419.999 74.3999C419.999 72.6158 419.403 70.883 418.305 69.4768C417.207 68.0706 415.671 67.0717 413.94 66.6389C407.759 65.0752 402.145 61.7973 397.744 57.1828C393.344 52.5682 390.337 46.8047 389.069 40.5559L387.845 34.4319C387.483 32.618 386.503 30.9857 385.073 29.8129C383.642 28.64 381.85 27.999 380 27.999C378.15 27.999 376.358 28.64 374.927 29.8129C373.497 30.9857 372.517 32.618 372.155 34.4319L370.931 40.5559C369.663 46.8047 366.656 52.5682 362.256 57.1828C357.855 61.7973 352.241 65.0752 346.06 66.6389C344.329 67.0717 342.793 68.0706 341.695 69.4768C340.597 70.883 340.001 72.6158 340.001 74.3999C340.001 76.1839 340.597 77.9167 341.695 79.3229C342.793 80.7292 344.329 81.7281 346.06 82.1609V82.1609ZM380 60.2819C383.372 65.6479 387.729 70.3269 392.842 74.0719C387.82 77.4809 383.467 81.7833 380 86.7649C376.533 81.7833 372.18 77.4809 367.158 74.0719C372.271 70.3269 376.628 65.6479 380 60.2819V60.2819ZM136.93 206.742C142.856 232.237 153.337 256.453 167.868 278.224L193.344 316.438C193.679 316.935 194.069 317.393 194.507 317.802L166.033 332.039C156.987 336.524 149.378 343.454 144.07 352.043C138.761 360.632 135.966 370.537 136 380.634V488C136 490.122 136.843 492.156 138.343 493.657C139.843 495.157 141.878 496 144 496H368C370.122 496 372.157 495.157 373.657 493.657C375.157 492.156 376 490.122 376 488V380.634C376.035 370.536 373.24 360.63 367.932 352.04C362.623 343.45 355.014 336.519 345.967 332.034L304.845 311.473C302.182 310.153 299.941 308.113 298.378 305.584C296.815 303.056 295.991 300.14 296 297.167V283.833C311.277 273.599 322.073 257.922 326.186 240H328C332.66 240.001 337.219 238.645 341.121 236.098C345.024 233.551 348.1 229.923 349.975 225.657C351.85 221.391 352.443 216.672 351.681 212.074C350.918 207.477 348.834 203.201 345.683 199.769C350.288 192.228 353.279 183.814 354.465 175.059C355.652 166.303 355.01 157.396 352.578 148.902V148.902C349.591 138.514 344.029 129.05 336.409 121.385C328.788 113.72 319.356 108.104 308.986 105.057L301.17 93.3329C294.275 82.9908 285.167 74.3113 274.505 67.9225C263.843 61.5337 251.894 57.5956 239.522 56.3933C227.151 55.1909 214.667 56.7544 202.974 60.9706C191.281 65.1867 180.672 71.95 171.915 80.7709L171.101 81.5859C155.368 97.3296 143.913 116.827 137.818 138.233C131.723 159.64 131.19 182.247 136.27 203.917L136.93 206.742ZM176.491 480H152V416H169.4C167.045 424.46 166.537 433.328 167.911 442.002C169.285 450.676 172.509 458.953 177.363 466.271L176.491 480ZM360 480H335.509L334.637 466.271C339.491 458.953 342.715 450.676 344.089 442.002C345.463 433.328 344.955 424.46 342.6 416H360V480ZM315.969 334.946L315.984 334.936L338.811 346.35C345.193 349.514 350.562 354.403 354.307 360.463C358.052 366.522 360.024 373.51 360 380.634V400H336.616L336 398.459V376C336 373.878 335.157 371.843 333.657 370.343C332.157 368.843 330.122 368 328 368C325.878 368 323.843 368.843 322.343 370.343C320.843 371.843 320 373.878 320 376V400C320 401.018 320.194 402.026 320.572 402.971L325.536 415.379C328.434 422.56 329.447 430.363 328.481 438.046C327.515 445.73 324.601 453.038 320.016 459.279C318.913 460.789 318.374 462.637 318.492 464.503L319.476 480H192.524L193.508 464.507C193.626 462.641 193.087 460.793 191.984 459.283C187.399 453.043 184.485 445.734 183.518 438.05C182.552 430.367 183.566 422.564 186.464 415.383L191.428 402.974C191.806 402.028 192 401.019 192 400V376C192 373.878 191.157 371.843 189.657 370.343C188.157 368.843 186.122 368 184 368C181.878 368 179.843 368.843 178.343 370.343C176.843 371.843 176 373.878 176 376V398.459L175.384 400H152V380.634C151.976 373.51 153.948 366.522 157.693 360.463C161.438 354.403 166.807 349.514 173.189 346.35L196.016 334.936L196.031 334.946C214.31 345.336 234.975 350.799 256 350.799C277.025 350.799 297.69 345.336 315.969 334.946ZM208 311.018V281.612C208 280.343 208.07 279.086 208.173 277.835C210.639 280.037 213.254 282.066 216 283.907V297.167C216.009 299.977 215.274 302.739 213.869 305.172C212.463 307.605 210.438 309.622 208 311.018V311.018ZM297.688 325.789L298.141 326.015C284.847 331.809 270.502 334.8 256 334.8C241.498 334.8 227.153 331.809 213.859 326.015L214.312 325.789C219.64 323.147 224.121 319.065 227.247 314.006C230.374 308.947 232.02 303.114 232 297.167V291.925C247.539 297.376 264.473 297.358 280 291.872V297.167C279.98 303.114 281.626 308.947 284.753 314.006C287.879 319.065 292.36 323.147 297.688 325.789V325.789ZM312 224C312.003 235.462 308.488 246.65 301.929 256.05C295.37 265.451 286.084 272.611 275.325 276.565C264.565 280.518 252.852 281.074 241.767 278.157C230.682 275.24 220.759 268.99 213.34 260.253C216.237 254.842 220.204 250.077 225 246.247C232.194 240.52 237.999 233.24 241.982 224.952C245.965 216.664 248.022 207.583 248 198.388V152H283.314C288.468 171.201 298.327 188.815 312 203.248V224ZM248 136V128.971C248 127.197 248.526 125.462 249.511 123.987C250.497 122.511 251.898 121.361 253.537 120.682C255.176 120.003 256.98 119.826 258.72 120.172C260.46 120.518 262.058 121.372 263.313 122.627L276.686 136H248ZM329.747 223.8L335.867 214.619C336.244 216.645 335.815 218.738 334.672 220.452C333.529 222.167 331.762 223.368 329.747 223.8ZM307.38 121.352C314.222 123.829 320.412 127.829 325.481 133.05C330.549 138.271 334.365 144.577 336.638 151.489C338.912 158.402 339.584 165.741 338.603 172.951C337.623 180.162 335.016 187.055 330.98 193.11L327.739 197.97C327.379 196.598 326.661 195.346 325.658 194.343C311.109 179.823 301.201 161.309 297.189 141.149L296.495 137.681L307.38 121.352ZM153.207 142.614C158.568 123.833 168.62 106.725 182.417 92.8999L183.231 92.0859C190.314 84.9393 198.899 79.4579 208.362 76.0389C217.826 72.62 227.931 71.349 237.947 72.3183C247.962 73.2875 257.637 76.4726 266.269 81.6427C274.901 86.8129 282.275 93.8386 287.857 102.211L294.385 112L286.757 123.443L274.628 111.314C271.136 107.822 266.686 105.443 261.843 104.48C256.999 103.517 251.978 104.011 247.415 105.901C242.852 107.791 238.952 110.992 236.208 115.098C233.465 119.204 232 124.032 232 128.971V198.388C232.016 205.183 230.495 211.894 227.551 218.018C224.607 224.142 220.317 229.521 215 233.753C207.806 239.48 202.001 246.76 198.018 255.048C194.035 263.336 191.978 272.417 192 281.612V285.578L181.181 269.349C167.716 249.174 158.004 226.734 152.512 203.109L151.847 200.263C147.401 181.243 147.869 161.403 153.207 142.614Z" fill="#BCBCB7"/>
</svg>
