<svg width="512" height="512" viewBox="0 0 512 512" fill="none" xmlns="http://www.w3.org/2000/svg">
<path d="M96 208C95.947 239.853 106.507 270.817 126.012 296H106C103.878 296 101.843 296.843 100.343 298.343C98.8429 299.843 98 301.878 98 304V306C98.0209 324.559 105.403 342.351 118.526 355.474C131.649 368.597 149.441 375.979 168 376H312C330.559 375.979 348.351 368.597 361.474 355.474C374.597 342.351 381.979 324.559 382 306V304C382 301.878 381.157 299.843 379.657 298.343C378.157 296.843 376.122 296 374 296H353.986C373.499 270.821 384.06 239.855 384 208C384 128.6 319.4 63.9999 240 63.9999C160.6 63.9999 96 128.6 96 208ZM365.669 312C364.176 325.194 357.881 337.378 347.984 346.23C338.086 355.082 325.278 359.983 312 360H168C154.722 359.983 141.914 355.082 132.016 346.23C122.119 337.378 115.824 325.194 114.331 312H200V320C200.007 326.363 202.538 332.463 207.038 336.962C211.537 341.462 217.637 343.992 224 344H256C262.363 343.992 268.463 341.462 272.962 336.962C277.462 332.463 279.993 326.363 280 320L280.132 312.022C280.153 312 365.669 312 365.669 312ZM291.985 127.329C297.053 130.606 301.803 134.35 306.173 138.513L170.456 274.23C166.294 269.859 162.554 265.105 159.287 260.03L291.985 127.329ZM151.477 245.209C144.089 227.625 142.106 208.24 145.779 189.524C149.453 170.809 158.617 153.611 172.104 140.125C185.59 126.639 202.788 117.475 221.503 113.801C240.219 110.128 259.604 112.112 277.188 119.5L151.477 245.209ZM316.822 150.492C325.654 162.244 331.657 175.874 334.362 190.324L228.686 296H201.6C194.808 293.037 188.381 289.3 182.446 284.864L316.822 150.492ZM251.314 296L335.934 211.38C335.25 229.464 329.49 246.99 319.313 261.955C309.136 276.919 294.953 288.717 278.386 296H251.314ZM264 312V320C263.998 322.121 263.154 324.154 261.654 325.654C260.154 327.154 258.121 327.997 256 328H224C221.879 327.997 219.846 327.154 218.346 325.654C216.846 324.154 216.002 322.121 216 320V312H264ZM240 79.9999C265.018 79.9986 289.489 87.3295 310.385 101.086C331.282 114.843 347.689 134.422 357.578 157.404C367.466 180.385 370.403 205.76 366.024 230.393C361.646 255.025 350.144 277.834 332.942 296H309.226C327.505 281.6 340.842 261.863 347.383 239.532C353.925 217.201 353.345 193.387 345.725 171.401C338.105 149.415 323.824 130.349 304.866 116.856C285.909 103.363 263.218 96.1118 239.949 96.1118C216.68 96.1118 193.989 103.363 175.032 116.856C156.074 130.349 141.793 149.415 134.173 171.401C126.553 193.387 125.973 217.201 132.515 239.532C139.056 261.863 152.393 281.6 170.672 296H147.049C129.849 277.832 118.351 255.023 113.974 230.391C109.598 205.759 112.536 180.384 122.425 157.404C132.314 134.423 148.721 114.845 169.617 101.088C190.513 87.3315 214.982 80 240 79.9999V79.9999ZM488 280L487.638 155.235C487.638 155.163 487.628 155.094 487.626 155.023C487.599 151.187 486.426 146.361 483.037 140.436C478.661 132.771 471.388 124.688 462.559 117.673C453.729 110.659 444.209 105.403 435.754 102.873C421.12 98.4979 414.333 103.628 411.592 107.073C409.428 109.868 408.292 113.322 408.375 116.856C408.375 116.916 408.366 116.976 408.365 117.037L408 280C405.878 280 403.843 280.843 402.343 282.343C400.843 283.843 400 285.878 400 288V395.764H199.729L131.37 393.379L125.439 389.821C113.036 382.37 99.1657 377.694 84.783 376.115C70.4003 374.537 55.8462 376.092 42.122 380.675C36.8421 382.43 32.2494 385.804 28.9963 390.317C25.7431 394.831 23.9949 400.255 24 405.819V449.709C23.9949 455.273 25.7431 460.697 28.9965 465.211C32.2499 469.725 36.8429 473.098 42.123 474.853C55.8471 479.435 70.4009 480.991 84.7834 479.412C99.166 477.833 113.036 473.157 125.439 465.707L131.37 462.149L199.729 459.764H416C422.329 459.757 428.513 457.876 433.774 454.359C439.036 450.841 443.137 445.845 445.563 440H488C490.122 440 492.157 439.157 493.657 437.657C495.157 436.156 496 434.122 496 432V288C496 285.878 495.157 283.843 493.657 282.343C492.157 280.843 490.122 280 488 280ZM121.025 409.185L86.492 402.278C85.4618 402.072 84.4011 402.071 83.3704 402.275C82.3398 402.479 81.3594 402.883 80.4852 403.466C79.611 404.049 78.8602 404.798 78.2756 405.671C77.691 406.544 77.2841 407.524 77.078 408.554C76.872 409.584 76.8709 410.645 77.0747 411.675C77.2786 412.706 77.6835 413.686 78.2663 414.561C78.8491 415.435 79.5983 416.186 80.4713 416.77C81.3442 417.355 82.3238 417.762 83.354 417.968L121.025 425.502V430.026L83.354 437.561C81.4066 437.949 79.6729 439.047 78.4902 440.642C77.3074 442.237 76.7601 444.215 76.9546 446.191C77.1492 448.167 78.0717 450 79.5428 451.334C81.0138 452.667 82.9283 453.406 84.914 453.407C85.435 453.407 121.025 446.343 121.025 446.343V449.7L117.207 451.991C106.783 458.253 95.1257 462.183 83.0376 463.51C70.9496 464.837 58.7175 463.53 47.183 459.678C45.0897 458.982 43.2689 457.645 41.9793 455.855C40.6898 454.065 39.9972 451.915 40 449.709V405.819C39.9982 403.614 40.6913 401.464 41.9807 399.675C43.2701 397.886 45.0904 396.549 47.183 395.854C58.7176 392.003 70.9496 390.695 83.0375 392.022C95.1255 393.349 106.783 397.279 117.207 403.541L121.025 405.832V409.185ZM191.59 444.039L172.273 444.712C172.096 442.671 171.142 440.775 169.608 439.417C168.074 438.058 166.077 437.341 164.029 437.412C161.981 437.484 160.039 438.339 158.603 439.801C157.168 441.263 156.348 443.22 156.314 445.269L137.025 445.942V409.586L156.308 410.259V418.943C156.308 421.065 157.151 423.099 158.651 424.6C160.151 426.1 162.186 426.943 164.308 426.943C166.43 426.943 168.465 426.1 169.965 424.6C171.465 423.099 172.308 421.065 172.308 418.943V410.817L191.59 411.49V444.039ZM424.364 117.212C427.756 116.692 438.992 119.388 452.606 130.202C466.22 141.016 471.406 151.385 471.65 154.787C468.28 155.319 457.024 152.625 443.395 141.798C429.878 131.062 424.688 120.798 424.364 117.31V117.212ZM424.288 146.112C427.17 149.032 430.227 151.775 433.442 154.324C442.272 161.338 451.792 166.594 460.247 169.124C463.6 170.185 467.089 170.754 470.605 170.811C470.979 170.811 471.337 170.796 471.693 170.781L471.971 248H424.021L424.288 146.112ZM424 264H472V280H424V264ZM416 443.764H207.59V411.764H416C420.243 411.764 424.313 413.45 427.314 416.45C430.314 419.451 432 423.52 432 427.764C432 432.007 430.314 436.077 427.314 439.078C424.313 442.078 420.243 443.764 416 443.764ZM480 424H447.771C446.841 416.224 443.095 409.058 437.242 403.855C431.388 398.653 423.831 395.774 416 395.764V296H480V424ZM448 328V320C448 317.878 448.843 315.843 450.343 314.343C451.843 312.843 453.878 312 456 312C458.122 312 460.157 312.843 461.657 314.343C463.157 315.843 464 317.878 464 320V328C464 330.122 463.157 332.156 461.657 333.657C460.157 335.157 458.122 336 456 336C453.878 336 451.843 335.157 450.343 333.657C448.843 332.156 448 330.122 448 328ZM448 384V360C448 357.878 448.843 355.843 450.343 354.343C451.843 352.843 453.878 352 456 352C458.122 352 460.157 352.843 461.657 354.343C463.157 355.843 464 357.878 464 360V384C464 386.122 463.157 388.156 461.657 389.657C460.157 391.157 458.122 392 456 392C453.878 392 451.843 391.157 450.343 389.657C448.843 388.156 448 386.122 448 384ZM22.06 126.161L23.388 126.493C29.316 127.968 34.7304 131.03 39.05 135.35C43.3697 139.669 46.4315 145.084 47.907 151.012L48.239 152.34C48.6718 154.071 49.6707 155.607 51.0769 156.705C52.4832 157.803 54.216 158.399 56 158.399C57.784 158.399 59.5169 157.803 60.9231 156.705C62.3293 155.607 63.3282 154.071 63.761 152.34L64.093 151.012C65.5685 145.084 68.6303 139.669 72.95 135.35C77.2696 131.03 82.684 127.968 88.612 126.493L89.94 126.161C91.6707 125.728 93.2071 124.729 94.305 123.323C95.4028 121.917 95.9992 120.184 95.9992 118.4C95.9992 116.616 95.4028 114.883 94.305 113.477C93.2071 112.071 91.6707 111.072 89.94 110.639C83.7586 109.075 78.1445 105.797 73.7444 101.183C69.3443 96.5682 66.337 90.8047 65.069 84.5559L63.845 78.4319C63.4827 76.618 62.5029 74.9857 61.0726 73.8129C59.6423 72.64 57.8497 71.999 56 71.999C54.1503 71.999 52.3577 72.64 50.9274 73.8129C49.4971 74.9857 48.5174 76.618 48.155 78.4319L46.931 84.5559C45.663 90.8047 42.6557 96.5682 38.2556 101.183C33.8555 105.797 28.2414 109.075 22.06 110.639C20.3293 111.072 18.7929 112.071 17.695 113.477C16.5972 114.883 16.0009 116.616 16.0009 118.4C16.0009 120.184 16.5972 121.917 17.695 123.323C18.7929 124.729 20.3293 125.728 22.06 126.161V126.161ZM56 104.282C59.3719 109.648 63.7293 114.327 68.842 118.072C63.8203 121.481 59.4674 125.783 56 130.765C52.5326 125.783 48.1798 121.481 43.158 118.072C48.2707 114.327 52.6281 109.648 56 104.282V104.282ZM78.06 78.1609L79.388 78.4929C85.316 79.9683 90.7304 83.0302 95.05 87.3498C99.3697 91.6695 102.432 97.0838 103.907 103.012L104.239 104.34C104.672 106.071 105.671 107.607 107.077 108.705C108.483 109.803 110.216 110.399 112 110.399C113.784 110.399 115.517 109.803 116.923 108.705C118.329 107.607 119.328 106.071 119.761 104.34L120.093 103.012C121.568 97.0838 124.63 91.6695 128.95 87.3498C133.27 83.0302 138.684 79.9683 144.612 78.4929L145.94 78.1609C147.671 77.7281 149.207 76.7292 150.305 75.3229C151.403 73.9167 151.999 72.1839 151.999 70.3999C151.999 68.6158 151.403 66.883 150.305 65.4768C149.207 64.0706 147.671 63.0717 145.94 62.6389C139.759 61.0752 134.145 57.7973 129.744 53.1828C125.344 48.5682 122.337 42.8047 121.069 36.5559L119.845 30.4319C119.483 28.618 118.503 26.9857 117.073 25.8129C115.642 24.64 113.85 23.999 112 23.999C110.15 23.999 108.358 24.64 106.927 25.8129C105.497 26.9857 104.517 28.618 104.155 30.4319L102.931 36.5559C101.663 42.8047 98.6557 48.5682 94.2556 53.1828C89.8555 57.7973 84.2414 61.0752 78.06 62.6389C76.3293 63.0717 74.7929 64.0706 73.695 65.4768C72.5972 66.883 72.0009 68.6158 72.0009 70.3999C72.0009 72.1839 72.5972 73.9167 73.695 75.3229C74.7929 76.7292 76.3293 77.7281 78.06 78.1609ZM112 56.2819C115.372 61.6479 119.729 66.3269 124.842 70.0719C119.82 73.4809 115.467 77.7833 112 82.7649C108.533 77.7833 104.18 73.4809 99.158 70.0719C104.271 66.3269 108.628 61.6479 112 56.2819Z" fill="#BCBCB7"/>
</svg>
